# https://github.com/mikedh/trimesh

o mount_13.obj
v -0.00390791 0.00261118 0.00000000
v -0.00434223 0.00179861 0.00000000
v -0.01870807 0.01250033 0.00000000
v -0.02078729 0.00861038 0.00000000
v -0.00390791 0.00261118 0.01200000
v -0.00434223 0.00179861 0.01200000
v -0.01870807 0.01250033 0.01200000
v -0.02078729 0.00861038 0.01200000
vn 0.78833858 0.19747164 -0.58268965
vn 0.27379158 -0.76518750 -0.58268882
vn -0.19924403 0.79542618 -0.57236266
vn -0.77206665 -0.27624993 -0.57236270
vn 0.78833858 0.19747164 0.58268965
vn 0.27379158 -0.76518750 0.58268882
vn -0.19924403 0.79542618 0.57236266
vn -0.77206665 -0.27624993 0.57236270
f 7//7 5//5 1//1
f 1//1 3//3 7//7
f 2//2 3//3 1//1
f 4//4 3//3 2//2
f 8//8 7//7 3//3
f 8//8 3//3 4//4
f 1//1 5//5 6//6
f 6//6 2//2 1//1
f 5//5 7//7 6//6
f 7//7 8//8 6//6
f 4//4 2//2 6//6
f 6//6 8//8 4//4

