# https://github.com/mikedh/trimesh

o tool_07.obj
v 0.00091692 0.00460969 -0.00170000
v 0.00000000 0.00470000 -0.00170000
v 0.00438953 0.02206767 -0.00170000
v 0.00000000 0.02250000 -0.00170000
v 0.00091692 0.00460969 0.00200000
v 0.00000000 0.00470000 0.00200000
v 0.00438953 0.02206767 0.00200000
v 0.00000000 0.02250000 0.00200000
vn 0.48412143 -0.65276318 -0.58268917
vn -0.60216765 -0.54577219 -0.58268932
vn 0.65863063 0.48847383 -0.57236266
vn -0.55067880 0.60758030 -0.57236268
vn 0.48412143 -0.65276318 0.58268917
vn -0.60216765 -0.54577219 0.58268932
vn 0.65863063 0.48847383 0.57236266
vn -0.55067880 0.60758030 0.57236268
f 1//1 4//4 3//3
f 2//2 4//4 1//1
f 3//3 7//7 1//1
f 1//1 7//7 5//5
f 2//2 1//1 6//6
f 6//6 1//1 5//5
f 3//3 4//4 8//8
f 8//8 7//7 3//3
f 8//8 4//4 2//2
f 2//2 6//6 8//8
f 5//5 7//7 8//8
f 8//8 6//6 5//5

