# https://github.com/mikedh/trimesh

o tool_17.obj
v -0.00460969 -0.00091692 -0.00170000
v -0.00434223 -0.00179861 -0.00170000
v -0.02206767 -0.00438953 -0.00170000
v -0.02078729 -0.00861038 -0.00170000
v -0.00460969 -0.00091692 0.00200000
v -0.00434223 -0.00179861 0.00200000
v -0.02206767 -0.00438953 0.00200000
v -0.02078729 -0.00861038 0.00200000
vn 0.41780786 0.69707223 -0.58268937
vn 0.73466814 -0.34747102 -0.58268912
vn -0.70333794 0.42156458 -0.57236269
vn -0.35059544 -0.74127176 -0.57236265
vn 0.41780786 0.69707223 0.58268937
vn 0.73466814 -0.34747102 0.58268912
vn -0.70333794 0.42156458 0.57236269
vn -0.35059544 -0.74127176 0.57236265
f 2//2 4//4 1//1
f 1//1 4//4 3//3
f 7//7 1//1 3//3
f 5//5 1//1 7//7
f 3//3 4//4 7//7
f 4//4 8//8 7//7
f 2//2 1//1 6//6
f 6//6 1//1 5//5
f 6//6 4//4 2//2
f 6//6 8//8 4//4
f 5//5 7//7 6//6
f 6//6 7//7 8//8

