# https://github.com/mikedh/trimesh

o tool_11.obj
v -0.00261118 0.00390791 -0.00170000
v -0.00332340 0.00332340 -0.00170000
v -0.01250033 0.01870807 -0.00170000
v -0.01590990 0.01590990 -0.00170000
v -0.00261118 0.00390791 0.00200000
v -0.00332340 0.00332340 0.00200000
v -0.01250033 0.01870807 0.00200000
v -0.01590990 0.01590990 0.00200000
vn 0.80389896 -0.11924504 -0.58268953
vn -0.03987497 -0.81171644 -0.58268895
vn 0.12031851 0.81112546 -0.57236260
vn -0.81901285 0.04023493 -0.57236274
vn 0.80389896 -0.11924504 0.58268953
vn -0.03987497 -0.81171644 0.58268895
vn 0.12031851 0.81112546 0.57236260
vn -0.81901285 0.04023493 0.57236274
f 7//7 5//5 1//1
f 1//1 3//3 7//7
f 2//2 3//3 1//1
f 4//4 3//3 2//2
f 8//8 7//7 3//3
f 8//8 3//3 4//4
f 1//1 5//5 6//6
f 6//6 2//2 1//1
f 5//5 7//7 6//6
f 7//7 8//8 6//6
f 4//4 2//2 6//6
f 6//6 8//8 4//4

