# https://github.com/mikedh/trimesh

o tool_25.obj
v 0.00091692 -0.00460969 -0.00170000
v 0.00179861 -0.00434223 -0.00170000
v 0.00438953 -0.02206767 -0.00170000
v 0.00861038 -0.02078729 -0.00170000
v 0.00091692 -0.00460969 0.00200000
v 0.00179861 -0.00434223 0.00200000
v 0.00438953 -0.02206767 0.00200000
v 0.00861038 -0.02078729 0.00200000
vn -0.69707223 0.41780786 -0.58268937
vn 0.34747102 0.73466814 -0.58268912
vn -0.42156458 -0.70333794 -0.57236269
vn 0.74127176 -0.35059544 -0.57236265
vn -0.69707223 0.41780786 0.58268937
vn 0.34747102 0.73466814 0.58268912
vn -0.42156458 -0.70333794 0.57236269
vn 0.74127176 -0.35059544 0.57236265
f 7//7 5//5 1//1
f 1//1 3//3 7//7
f 2//2 3//3 1//1
f 4//4 3//3 2//2
f 8//8 7//7 3//3
f 8//8 3//3 4//4
f 1//1 5//5 6//6
f 6//6 2//2 1//1
f 5//5 7//7 6//6
f 7//7 8//8 6//6
f 4//4 2//2 6//6
f 6//6 8//8 4//4

