# https://github.com/mikedh/trimesh

o tool_19.obj
v -0.00390791 -0.00261118 -0.00170000
v -0.00332340 -0.00332340 -0.00170000
v -0.01870807 -0.01250033 -0.00170000
v -0.01590990 -0.01590990 -0.00170000
v -0.00390791 -0.00261118 0.00200000
v -0.00332340 -0.00332340 0.00200000
v -0.01870807 -0.01250033 0.00200000
v -0.01590990 -0.01590990 0.00200000
vn 0.11924504 0.80389896 -0.58268953
vn 0.81171644 -0.03987497 -0.58268895
vn -0.81112546 0.12031851 -0.57236260
vn -0.04023493 -0.81901285 -0.57236274
vn 0.11924504 0.80389896 0.58268953
vn 0.81171644 -0.03987497 0.58268895
vn -0.81112546 0.12031851 0.57236260
vn -0.04023493 -0.81901285 0.57236274
f 2//2 4//4 1//1
f 1//1 4//4 3//3
f 3//3 7//7 1//1
f 1//1 7//7 5//5
f 2//2 1//1 6//6
f 6//6 1//1 5//5
f 3//3 4//4 8//8
f 8//8 7//7 3//3
f 8//8 4//4 2//2
f 2//2 6//6 8//8
f 5//5 7//7 8//8
f 8//8 6//6 5//5

