# https://github.com/mikedh/trimesh

o tool_21.obj
v -0.00261118 -0.00390791 -0.00170000
v -0.00179861 -0.00434223 -0.00170000
v -0.01250033 -0.01870807 -0.00170000
v -0.00861038 -0.02078729 -0.00170000
v -0.00261118 -0.00390791 0.00200000
v -0.00179861 -0.00434223 0.00200000
v -0.01250033 -0.01870807 0.00200000
v -0.00861038 -0.02078729 0.00200000
vn -0.19747164 0.78833858 -0.58268965
vn 0.76518750 0.27379158 -0.58268882
vn -0.79542618 -0.19924403 -0.57236266
vn 0.27624993 -0.77206665 -0.57236270
vn -0.19747164 0.78833858 0.58268965
vn 0.76518750 0.27379158 0.58268882
vn -0.79542618 -0.19924403 0.57236266
vn 0.27624993 -0.77206665 0.57236270
f 2//2 4//4 1//1
f 1//1 4//4 3//3
f 3//3 7//7 1//1
f 1//1 7//7 5//5
f 2//2 1//1 6//6
f 6//6 1//1 5//5
f 3//3 4//4 8//8
f 8//8 7//7 3//3
f 8//8 4//4 2//2
f 2//2 6//6 8//8
f 5//5 7//7 8//8
f 8//8 6//6 5//5

