# https://github.com/mikedh/trimesh
mtllib material.mtl

o Node-Mesh
usemtl default
v 0.01088600 -0.00721600 -0.00689400
v 0.01135800 -0.00839400 -0.00657800
v 0.01400000 -0.01500000 -0.01500000
v 0.01040000 -0.00600000 -0.00700000
v 0.01180000 -0.00950000 -0.00606200
v 0.01220000 -0.01050000 -0.00536200
v 0.01254500 -0.01136200 -0.00450000
v 0.01220000 -0.01050000 0.00536200
v 0.01180000 -0.00950000 0.00606200
v 0.01400000 -0.01500000 0.01500000
v 0.01135800 -0.00839400 0.00657800
v 0.00600000 0.00500000 -0.00700000
v 0.00664200 0.00339600 -0.00856100
v 0.00600000 0.00500000 -0.00814500
v 0.01315700 -0.01289400 -0.00121600
v 0.01318900 -0.01297300 -0.00061000
v 0.01320000 -0.01300000 0.00000000
v 0.01318900 -0.01297300 0.00061000
v 0.01315700 -0.01289400 0.00121600
v 0.01310500 -0.01276100 0.00181200
v 0.01088600 -0.00721600 0.00689400
v 0.01040000 -0.00600000 0.00700000
v 0.00664200 0.00339600 0.00856100
v 0.00600000 0.00500000 0.00700000
v 0.00600000 0.00500000 0.00814500
v 0.01293800 -0.01234400 -0.00295800
v 0.01303100 -0.01257800 -0.00239400
v 0.01310500 -0.01276100 -0.00181200
v 0.01303100 -0.01257800 0.00239400
v 0.01293800 -0.01234400 0.00295800
v 0.01282500 -0.01206200 0.00350000
v 0.01269400 -0.01173400 -0.00401500
v 0.01282500 -0.01206200 -0.00350000
v 0.01269400 -0.01173400 0.00401500
v 0.01254500 -0.01136200 0.00450000
v 0.01200000 -0.03200000 -0.01500000
v 0.01200000 -0.03200000 0.01500000
v 0.00300000 -0.03200000 -0.01500000
v 0.00300000 -0.03200000 0.01500000
v -0.00600000 0.00339600 -0.00856100
v -0.00600000 -0.01500000 -0.01500000
v -0.00600000 0.00339600 0.00856100
v -0.00600000 -0.01500000 0.01500000
v -0.00600000 -0.01700000 -0.01500000
v 0.00300000 -0.01700000 -0.01500000
v -0.00600000 -0.01700000 0.01500000
v 0.00300000 -0.01700000 0.01500000
v -0.00900000 0.02766900 0.00942900
v -0.00900000 0.02800000 0.00953900
v -0.00900000 0.02800000 -0.00953900
v -0.00900000 0.02688100 -0.00911200
v -0.00900000 0.02540000 -0.00828500
v -0.00900000 0.02408100 -0.00722000
v -0.00900000 0.02207100 -0.00450200
v -0.00900000 0.02143800 -0.00292800
v -0.00900000 0.02108100 -0.00127000
v -0.00900000 0.02172100 0.00372900
v -0.00900000 0.02248500 0.00524300
v -0.00900000 0.02349300 0.00660700
v -0.00900000 0.02471800 0.00778000
v -0.00900000 0.02296000 -0.00594600
v -0.00900000 0.02612300 0.00873000
v -0.00900000 0.02100900 0.00042400
v -0.00900000 0.02122400 0.00210700
v -0.00600000 0.02540000 -0.00828500
v -0.00600000 0.02664100 -0.00900000
v -0.00600000 0.02524400 -0.00844900
v -0.00600000 0.02408100 -0.00722000
v -0.00600000 0.02378000 -0.00811300
v -0.00600000 0.02228200 -0.00800000
v -0.00600000 0.02471800 0.00778000
v -0.00600000 0.02524400 0.00844900
v -0.00600000 0.02612300 0.00873000
v -0.00600000 0.02664100 0.00900000
v -0.00600000 0.00502400 -0.00814100
v -0.00600000 0.02143800 -0.00292800
v -0.00600000 0.02108100 -0.00127000
v -0.00600000 0.02100900 0.00042400
v -0.00600000 0.02122400 0.00210700
v -0.00600000 0.02172100 0.00372900
v -0.00600000 0.00502400 0.00814100
v -0.00600000 0.02248500 0.00524300
v -0.00600000 0.00669900 0.00800000
v -0.00600000 0.02349300 0.00660700
v -0.00600000 0.02228200 0.00800000
v -0.00600000 0.02378000 0.00811300
v -0.00600000 0.00669900 -0.00800000
v -0.00600000 0.02207100 -0.00450200
v -0.00600000 0.02296000 -0.00594600
v 0.00600000 0.00669900 -0.00800000
v 0.00600000 0.02228200 -0.00800000
v 0.00600000 0.02664100 0.00900000
v 0.00600000 0.02766900 0.00942900
v 0.00300500 0.04099100 -0.00042400
v 0.00304000 0.04091900 -0.00127000
v -0.00900000 0.04091900 -0.00127000
v -0.00706100 0.03206100 0.00994400
v -0.00689300 0.03186000 0.00996300
v 0.00600000 0.03269000 0.00985600
v -0.00682300 0.03175000 0.00997200
v -0.00676200 0.03163400 0.00998000
v -0.00671200 0.03151300 0.00998700
v -0.00667200 0.03138800 0.00999200
v -0.00900000 0.03400000 -0.00953900
v -0.00900000 0.03511900 -0.00911200
v 0.00594200 0.03511700 -0.00910700
v -0.00851500 0.03351500 -0.00965900
v 0.00600000 0.03184800 -0.00996400
v -0.00688400 0.03184800 -0.00996400
v 0.00600000 0.03352000 -0.00967700
v -0.00689300 0.03186000 -0.00996300
v -0.00706100 0.03206100 -0.00994400
v 0.00600000 0.03500000 -0.00916500
v -0.00779500 0.03279500 -0.00983800
v -0.00676200 0.03036600 -0.00998000
v -0.00671200 0.03048700 -0.00998700
v 0.00600000 0.03015200 -0.00996400
v -0.00667200 0.03061200 -0.00999200
v -0.00664400 0.03126000 -0.00999700
v -0.00667200 0.03138800 -0.00999200
v -0.00662700 0.03113100 -0.00999900
v -0.00664400 0.03073900 -0.00999700
v -0.00662700 0.03086900 -0.00999900
v -0.00662100 0.03100000 -0.01000000
v -0.00671200 0.03151300 -0.00998700
v -0.00676200 0.03163400 -0.00998000
v 0.00600000 0.02848000 -0.00967700
v -0.00852000 0.02848000 -0.00967700
v -0.00779500 0.02920500 -0.00983800
v -0.00706100 0.02993900 -0.00994400
v -0.00689300 0.03014000 -0.00996300
v -0.00688400 0.03015200 -0.00996400
v -0.00664400 0.03126100 0.00999700
v -0.00662700 0.03113100 0.00999900
v 0.00600000 0.03100000 0.01000000
v -0.00662100 0.03100000 0.01000000
v 0.00600000 0.02931000 0.00985600
v -0.00662700 0.03086900 0.00999900
v -0.00664400 0.03074000 0.00999700
v -0.00667200 0.03061200 0.00999200
v -0.00671200 0.03048700 0.00998700
v -0.00676200 0.03036600 0.00998000
v -0.00682200 0.03025000 0.00997200
v -0.00689300 0.03014000 0.00996300
v -0.00706100 0.02993900 0.00994400
v -0.00769000 0.02931000 0.00985600
v 0.00600000 0.02688100 -0.00911200
v 0.00600000 0.02664100 -0.00900000
v -0.00900000 0.03660000 -0.00828500
v -0.00900000 0.03791900 -0.00722000
v 0.00454000 0.03791900 -0.00722000
v 0.00485900 0.03728200 -0.00778000
v 0.00520000 0.03660000 -0.00828500
v 0.00556200 0.03587700 -0.00873000
v -0.00900000 0.03904000 -0.00594600
v -0.00900000 0.03992900 -0.00450200
v 0.00353500 0.03992900 -0.00450200
v 0.00374200 0.03951500 -0.00524300
v 0.00398000 0.03904000 -0.00594600
v 0.00424700 0.03850700 -0.00660700
v -0.00900000 0.04056200 -0.00292800
v 0.00311200 0.04077600 -0.00210700
v 0.00321900 0.04056200 -0.00292800
v 0.00336100 0.04027900 -0.00372900
v 0.00300500 0.04099100 0.00042400
v -0.00900000 0.04099100 0.00042400
v 0.00304000 0.04091900 0.00127000
v -0.00900000 0.04077600 0.00210700
v 0.00311200 0.04077600 0.00210700
v 0.00321900 0.04056200 0.00292800
v -0.00900000 0.04027900 0.00372900
v 0.00336100 0.04027900 0.00372900
v 0.00353500 0.03992900 0.00450200
v -0.00900000 0.03951500 0.00524300
v 0.00374200 0.03951500 0.00524300
v 0.00398000 0.03904000 0.00594600
v -0.00900000 0.03850700 0.00660700
v 0.00424700 0.03850700 0.00660700
v 0.00454000 0.03791900 0.00722000
v -0.00900000 0.03728200 0.00778000
v 0.00485900 0.03728200 0.00778000
v 0.00520000 0.03660000 0.00828500
v -0.00900000 0.03587700 0.00873000
v 0.00556200 0.03587700 0.00873000
v 0.00600000 0.03500000 0.00916500
v -0.00900000 0.03433100 0.00942900
v 0.00600000 0.03433100 0.00942900
v -0.00900000 0.03400000 0.00953900
v -0.00769000 0.03269000 0.00985600
v 0.00600000 0.00669900 0.00800000
v 0.00600000 0.02228200 0.00800000
v 0.00600000 0.00502400 -0.00814100
v 0.00600000 0.02524400 0.00844900
v 0.00600000 0.02378000 0.00811300
v 0.00600000 -0.00600000 -0.00700000
v 0.00600000 -0.00600000 0.00700000
v 0.00600000 -0.00721600 0.00689400
v 0.00600000 -0.01136200 -0.00450000
v 0.00600000 -0.01050000 -0.00536200
v 0.00600000 -0.00839400 0.00657800
v 0.00600000 -0.00950000 0.00606200
v 0.00600000 -0.01050000 0.00536200
v 0.00600000 -0.01136200 0.00450000
v 0.00600000 -0.01206200 0.00350000
v 0.00600000 -0.01257800 0.00239400
v 0.00600000 -0.01289400 0.00121600
v 0.00600000 -0.01300000 0.00000000
v 0.00600000 -0.01289400 -0.00121600
v 0.00600000 0.02378000 -0.00811300
v 0.00600000 0.02524400 -0.00844900
v 0.00600000 -0.00721600 -0.00689400
v 0.00600000 -0.00950000 -0.00606200
v 0.00600000 -0.00839400 -0.00657800
v 0.00600000 0.00502400 0.00814100
v 0.00600000 -0.01257800 -0.00239400
v 0.00600000 -0.01206200 -0.00350000
v 0.01200000 -0.03200000 -0.01400000
v 0.01200000 -0.03200000 0.01400000
v 0.01200000 -0.04100000 -0.01400000
v 0.01200000 -0.04100000 0.01400000
v 0.01100000 -0.03200000 0.01500000
v 0.01100000 -0.03200000 -0.01500000
v 0.00300000 -0.01700000 0.01400000
v 0.00300000 -0.01800000 0.01500000
v 0.00300000 -0.01700000 -0.01400000
v 0.00300000 -0.01800000 -0.01500000
v -0.00600000 -0.01700000 -0.01400000
v -0.00600000 -0.01700000 0.01400000
v -0.00600000 -0.01800000 -0.01500000
v -0.00600000 -0.04100000 -0.01500000
v -0.00600000 -0.04100000 0.01500000
v -0.00600000 -0.01800000 0.01500000
v 0.01100000 -0.04100000 0.01500000
v 0.01100000 -0.04100000 -0.01500000
f 1 2 3
f 1 3 4
f 2 5 3
f 3 5 6
f 3 6 7
f 8 9 10
f 10 9 11
f 4 3 12
f 12 3 13
f 12 13 14
f 15 16 3
f 3 16 17
f 3 17 10
f 17 18 10
f 10 18 19
f 10 19 20
f 11 21 10
f 10 21 22
f 10 22 23
f 23 22 24
f 23 24 25
f 26 27 3
f 3 27 28
f 3 28 15
f 20 29 10
f 10 29 30
f 10 30 31
f 7 32 3
f 3 32 33
f 3 33 26
f 31 34 10
f 10 34 35
f 10 35 8
f 36 37 38
f 38 37 39
f 13 3 40
f 40 3 41
f 42 43 23
f 23 43 10
f 44 41 45
f 45 41 3
f 45 3 38
f 38 3 36
f 43 46 47
f 39 37 47
f 47 37 10
f 47 10 43
f 48 49 50
f 50 51 48
f 48 51 52
f 48 52 53
f 54 55 56
f 57 58 54
f 54 58 59
f 54 59 60
f 53 61 48
f 48 61 54
f 48 54 62
f 62 54 60
f 56 63 54
f 54 63 64
f 54 64 57
f 65 66 67
f 40 41 44
f 65 67 68
f 68 67 69
f 68 69 70
f 71 72 73
f 73 72 74
f 75 40 76
f 46 43 42
f 76 40 77
f 77 40 44
f 77 44 78
f 78 44 46
f 78 46 79
f 79 46 42
f 79 42 80
f 80 42 81
f 80 81 82
f 82 81 83
f 82 83 84
f 84 83 85
f 84 85 71
f 71 85 86
f 71 86 72
f 75 76 87
f 87 76 88
f 87 88 70
f 70 88 89
f 70 89 68
f 87 70 90
f 90 70 91
f 74 92 93
f 94 95 96
f 97 98 99
f 99 98 100
f 100 101 99
f 99 101 102
f 99 102 103
f 104 105 106
f 104 106 107
f 108 109 110
f 110 109 111
f 110 111 112
f 106 113 107
f 107 113 110
f 107 110 114
f 114 110 112
f 115 116 117
f 117 116 118
f 119 120 108
f 119 108 121
f 118 122 117
f 117 122 123
f 117 123 108
f 108 123 124
f 108 124 121
f 120 125 108
f 108 125 126
f 108 126 109
f 127 128 129
f 129 130 127
f 127 130 131
f 127 131 117
f 117 131 132
f 117 132 115
f 103 133 99
f 99 133 134
f 99 134 135
f 135 134 136
f 135 136 137
f 137 136 138
f 138 139 137
f 137 139 140
f 137 140 141
f 141 142 137
f 137 142 143
f 137 143 144
f 144 145 137
f 137 145 146
f 137 146 93
f 147 148 66
f 128 127 50
f 50 127 147
f 50 147 51
f 51 147 66
f 51 66 52
f 149 150 151
f 151 152 149
f 149 152 153
f 149 153 105
f 105 153 154
f 105 154 106
f 155 156 157
f 157 158 155
f 155 158 159
f 155 159 150
f 150 159 160
f 150 160 151
f 96 95 161
f 95 162 161
f 161 162 163
f 161 163 156
f 156 163 164
f 156 164 157
f 94 96 165
f 165 96 166
f 165 166 167
f 167 166 168
f 167 168 169
f 169 168 170
f 170 168 171
f 170 171 172
f 172 171 173
f 173 171 174
f 173 174 175
f 175 174 176
f 176 174 177
f 176 177 178
f 178 177 179
f 179 177 180
f 179 180 181
f 181 180 182
f 182 180 183
f 182 183 184
f 184 183 185
f 185 183 186
f 185 186 187
f 187 186 188
f 187 188 99
f 99 188 189
f 99 189 97
f 73 74 48
f 48 74 93
f 48 93 49
f 49 93 146
f 66 65 52
f 52 65 68
f 52 68 53
f 53 68 89
f 53 89 61
f 61 89 88
f 61 88 54
f 54 88 76
f 54 76 55
f 55 76 77
f 55 77 56
f 56 77 78
f 56 78 63
f 63 78 79
f 63 79 64
f 64 79 80
f 64 80 57
f 57 80 82
f 57 82 58
f 58 82 84
f 58 84 59
f 59 84 71
f 59 71 60
f 60 71 73
f 60 73 62
f 62 73 48
f 190 191 83
f 83 191 85
f 90 91 24
f 12 14 192
f 193 108 92
f 92 108 110
f 92 110 93
f 194 148 193
f 193 148 147
f 147 127 193
f 193 127 117
f 193 117 108
f 113 185 110
f 110 185 187
f 110 187 99
f 192 90 12
f 12 90 24
f 12 24 195
f 195 24 196
f 195 196 197
f 198 199 195
f 197 200 195
f 195 200 201
f 195 201 202
f 202 203 195
f 195 203 204
f 195 204 205
f 205 206 195
f 195 206 207
f 195 207 208
f 99 135 110
f 110 135 137
f 110 137 93
f 91 209 194
f 194 209 210
f 194 210 148
f 195 199 211
f 211 199 212
f 211 212 213
f 194 191 91
f 91 191 190
f 91 190 24
f 24 190 214
f 24 214 25
f 208 215 195
f 195 215 216
f 195 216 198
f 105 104 186
f 186 104 188
f 149 105 166
f 166 105 168
f 186 183 105
f 105 183 180
f 105 180 177
f 156 166 161
f 161 166 96
f 156 155 166
f 166 155 150
f 166 150 149
f 177 174 105
f 105 174 171
f 105 171 168
f 142 115 132
f 142 132 143
f 143 132 131
f 143 131 144
f 144 131 130
f 144 130 145
f 115 142 116
f 116 142 141
f 116 141 118
f 141 140 118
f 118 140 139
f 118 139 122
f 122 139 138
f 122 138 123
f 123 138 124
f 124 138 136
f 124 136 121
f 136 134 121
f 121 134 133
f 121 133 119
f 119 133 103
f 119 103 120
f 120 103 125
f 125 103 102
f 125 102 126
f 126 102 101
f 126 101 109
f 109 101 100
f 109 100 111
f 100 98 111
f 111 98 97
f 111 97 112
f 130 129 145
f 145 129 128
f 145 128 146
f 146 128 50
f 146 50 49
f 188 104 189
f 189 104 107
f 189 107 97
f 97 107 114
f 97 114 112
f 3 10 36
f 36 10 37
f 45 47 44
f 44 47 46
f 45 38 47
f 47 38 39
f 4 195 211
f 4 211 1
f 1 211 213
f 1 213 2
f 2 213 212
f 2 212 5
f 5 212 199
f 5 199 6
f 6 199 198
f 6 198 7
f 7 198 32
f 32 198 216
f 32 216 33
f 33 216 26
f 26 216 215
f 26 215 27
f 27 215 28
f 28 215 208
f 28 208 15
f 15 208 16
f 16 208 207
f 16 207 17
f 17 207 18
f 18 207 206
f 18 206 19
f 19 206 20
f 20 206 205
f 20 205 29
f 29 205 30
f 30 205 204
f 30 204 31
f 31 204 34
f 34 204 203
f 34 203 35
f 35 203 202
f 35 202 8
f 8 202 201
f 8 201 9
f 9 201 200
f 9 200 11
f 11 200 197
f 11 197 21
f 21 197 196
f 21 196 22
f 195 4 12
f 196 24 22
f 185 113 106
f 181 182 152
f 152 182 153
f 106 154 185
f 185 154 153
f 185 153 184
f 184 153 182
f 178 179 160
f 181 152 179
f 179 152 151
f 179 151 160
f 173 175 157
f 178 160 176
f 176 160 159
f 176 159 175
f 175 159 158
f 175 158 157
f 170 172 163
f 173 157 172
f 172 157 164
f 172 164 163
f 170 163 169
f 169 163 162
f 169 162 95
f 94 165 95
f 95 165 167
f 95 167 169
f 87 90 75
f 75 90 192
f 75 192 40
f 40 192 14
f 40 14 13
f 190 83 214
f 214 83 81
f 214 81 25
f 25 81 42
f 25 42 23
f 92 74 193
f 193 74 72
f 193 72 194
f 194 72 86
f 194 86 191
f 191 86 85
f 91 70 209
f 209 70 69
f 209 69 210
f 210 69 67
f 210 67 148
f 148 67 66
f 217 218 219
f 219 218 220
f 39 221 218
f 218 217 39
f 39 217 222
f 39 222 38
f 223 224 39
f 225 223 226
f 226 223 39
f 226 39 38
f 227 228 225
f 225 228 223
f 229 230 227
f 227 230 231
f 227 231 228
f 228 231 232
f 220 233 231
f 219 220 234
f 234 220 231
f 234 231 230
f 224 232 39
f 39 232 231
f 39 231 221
f 221 231 233
f 222 234 38
f 38 234 230
f 38 230 226
f 226 230 229
f 229 227 226
f 226 227 225
f 228 232 223
f 223 232 224
f 222 217 234
f 234 217 219
f 218 221 220
f 220 221 233

