# https://github.com/mikedh/trimesh
mtllib material.mtl

o Node-Mesh
usemtl default
v -0.07300000 0.00625000 -0.02450000
v -0.07300000 -0.03575000 -0.02450000
v -0.07300000 0.00625000 0.02450000
v -0.07300000 -0.03575000 0.02450000
v 0.07300000 0.00625000 0.02450000
v 0.07300000 -0.01525000 0.02450000
v 0.07300000 0.00625000 -0.02450000
v 0.07300000 -0.01525000 -0.02450000
v 0.07250000 -0.01575000 -0.02500000
v 0.05250000 -0.03575000 0.02500000
v 0.05200000 -0.03625000 0.02450000
v 0.05200000 -0.03625000 -0.02450000
v 0.07250000 -0.01575000 0.02500000
v 0.05250000 -0.03575000 -0.02500000
v -0.07250000 -0.03625000 0.02450000
v -0.07250000 -0.03625000 -0.02450000
v 0.00200000 0.00346400 -0.02500000
v 0.00136800 0.00375900 -0.02500000
v 0.07250000 0.00625000 -0.02500000
v 0.00069500 0.00393900 -0.02500000
v 0.00000000 0.00400000 -0.02500000
v -0.07250000 0.00625000 -0.02500000
v -0.00069500 0.00393900 -0.02500000
v -0.00136800 0.00375900 -0.02500000
v -0.00200000 0.00346400 -0.02500000
v -0.00257100 0.00306400 -0.02500000
v -0.00306400 0.00257100 -0.02500000
v -0.00346400 0.00200000 -0.02500000
v -0.00375900 0.00136800 -0.02500000
v -0.00393900 0.00069500 -0.02500000
v -0.00400000 -0.00000000 -0.02500000
v -0.00393900 -0.00069500 -0.02500000
v -0.07250000 -0.03575000 -0.02500000
v -0.00375900 -0.00136800 -0.02500000
v -0.00346400 -0.00200000 -0.02500000
v -0.00306400 -0.00257100 -0.02500000
v -0.00257100 -0.00306400 -0.02500000
v -0.00200000 -0.00346400 -0.02500000
v -0.00136800 -0.00375900 -0.02500000
v -0.00069500 -0.00393900 -0.02500000
v 0.00000000 -0.00400000 -0.02500000
v 0.00069500 -0.00393900 -0.02500000
v 0.00136800 -0.00375900 -0.02500000
v 0.00200000 -0.00346400 -0.02500000
v 0.00346400 -0.00200000 -0.02500000
v 0.00400000 -0.00000000 -0.02500000
v 0.00393900 -0.00069500 -0.02500000
v 0.00375900 -0.00136800 -0.02500000
v 0.00393900 0.00069500 -0.02500000
v 0.00375900 0.00136800 -0.02500000
v 0.00346400 0.00200000 -0.02500000
v 0.00257100 -0.00306400 -0.02500000
v 0.00306400 -0.00257100 -0.02500000
v 0.00306400 0.00257100 -0.02500000
v 0.00257100 0.00306400 -0.02500000
v 0.07250000 0.00625000 0.02500000
v -0.07250000 0.00625000 0.02500000
v -0.07250000 -0.03575000 0.02500000
v 0.00000000 0.00400000 -0.02400000
v 0.00069500 0.00393900 -0.02400000
v 0.00136800 0.00375900 -0.02400000
v 0.00200000 0.00346400 -0.02400000
v 0.00257100 0.00306400 -0.02400000
v 0.00306400 0.00257100 -0.02400000
v 0.00346400 0.00200000 -0.02400000
v 0.00375900 0.00136800 -0.02400000
v 0.00393900 0.00069500 -0.02400000
v 0.00400000 -0.00000000 -0.02400000
v 0.00393900 -0.00069500 -0.02400000
v 0.00375900 -0.00136800 -0.02400000
v 0.00346400 -0.00200000 -0.02400000
v 0.00306400 -0.00257100 -0.02400000
v 0.00257100 -0.00306400 -0.02400000
v 0.00200000 -0.00346400 -0.02400000
v 0.00136800 -0.00375900 -0.02400000
v 0.00069500 -0.00393900 -0.02400000
v 0.00000000 -0.00400000 -0.02400000
v -0.00069500 -0.00393900 -0.02400000
v -0.00136800 -0.00375900 -0.02400000
v -0.00200000 -0.00346400 -0.02400000
v -0.00257100 -0.00306400 -0.02400000
v -0.00306400 -0.00257100 -0.02400000
v -0.00346400 -0.00200000 -0.02400000
v -0.00375900 -0.00136800 -0.02400000
v -0.00393900 -0.00069500 -0.02400000
v -0.00400000 -0.00000000 -0.02400000
v -0.00393900 0.00069500 -0.02400000
v -0.00375900 0.00136800 -0.02400000
v -0.00346400 0.00200000 -0.02400000
v -0.00306400 0.00257100 -0.02400000
v -0.00257100 0.00306400 -0.02400000
v -0.00200000 0.00346400 -0.02400000
v -0.00136800 0.00375900 -0.02400000
v -0.00069500 0.00393900 -0.02400000
v 0.00000000 -0.00000000 -0.02400000
v -0.07000000 0.00725000 0.02200000
v 0.07000000 0.00725000 0.02200000
v 0.07250000 0.00725000 0.02500000
v 0.07000000 0.00725000 -0.02200000
v -0.07000000 0.00725000 -0.02200000
v -0.07250000 0.00725000 -0.02500000
v 0.07250000 0.00725000 -0.02500000
v 0.07300000 0.00725000 -0.02450000
v 0.07300000 0.00725000 0.02450000
v -0.07250000 0.00725000 0.02500000
v -0.07300000 0.00725000 0.02450000
v -0.07300000 0.00725000 -0.02450000
v 0.07000000 0.00625000 -0.02200000
v 0.07000000 0.00625000 0.02200000
v -0.07000000 0.00625000 0.02200000
v -0.07000000 0.00625000 -0.02200000
v -0.07250000 0.03625000 0.02500000
v 0.07250000 0.03625000 0.02500000
v -0.07250000 0.03625000 -0.02500000
v 0.07250000 0.03625000 -0.02500000
v -0.07300000 0.03575000 0.02450000
v -0.07300000 0.03575000 -0.02450000
v 0.07300000 0.03575000 0.02450000
v 0.07300000 0.03575000 -0.02450000
f 1 2 3
f 3 2 4
f 5 6 7
f 7 6 8
f 9 8 6
f 10 11 12
f 6 13 9
f 9 13 10
f 9 10 14
f 14 10 12
f 15 16 11
f 11 16 12
f 17 18 19
f 18 20 19
f 19 20 21
f 19 21 22
f 22 21 23
f 22 23 24
f 24 25 22
f 22 25 26
f 22 26 27
f 27 28 22
f 22 28 29
f 22 29 30
f 30 31 22
f 22 31 32
f 22 32 33
f 33 32 34
f 33 34 35
f 35 36 33
f 33 36 37
f 33 37 38
f 38 39 33
f 33 39 40
f 33 40 14
f 14 40 41
f 41 42 14
f 14 42 43
f 14 43 44
f 9 14 45
f 46 19 47
f 47 19 9
f 47 9 48
f 48 9 45
f 46 49 19
f 19 49 50
f 19 50 51
f 44 52 14
f 14 52 53
f 14 53 45
f 51 54 19
f 19 54 55
f 19 55 17
f 13 56 10
f 10 56 57
f 10 57 58
f 16 33 12
f 12 33 14
f 58 15 10
f 10 15 11
f 15 4 16
f 16 4 2
f 16 2 33
f 15 58 4
f 33 2 22
f 22 2 1
f 4 58 3
f 3 58 57
f 8 9 7
f 7 9 19
f 13 6 56
f 56 6 5
f 59 21 60
f 60 21 20
f 60 20 61
f 61 20 18
f 61 18 62
f 62 18 17
f 62 17 63
f 63 17 55
f 63 55 64
f 64 55 54
f 64 54 65
f 65 54 51
f 65 51 66
f 66 51 50
f 66 50 67
f 67 50 49
f 67 49 68
f 68 49 46
f 68 46 69
f 69 46 47
f 69 47 70
f 70 47 48
f 70 48 71
f 71 48 45
f 71 45 72
f 72 45 53
f 72 53 73
f 73 53 52
f 73 52 74
f 74 52 44
f 74 44 75
f 75 44 43
f 75 43 76
f 76 43 42
f 76 42 77
f 77 42 41
f 77 41 78
f 78 41 40
f 78 40 79
f 79 40 39
f 79 39 80
f 80 39 38
f 80 38 81
f 81 38 37
f 81 37 82
f 82 37 36
f 82 36 83
f 83 36 35
f 83 35 84
f 84 35 34
f 84 34 85
f 85 34 32
f 85 32 86
f 86 32 31
f 86 31 87
f 87 31 30
f 87 30 88
f 88 30 29
f 88 29 89
f 89 29 28
f 89 28 90
f 90 28 27
f 90 27 91
f 91 27 26
f 91 26 92
f 92 26 25
f 92 25 93
f 93 25 24
f 93 24 94
f 94 24 23
f 94 23 59
f 59 23 21
f 93 94 95
f 95 94 59
f 95 59 60
f 90 91 95
f 95 91 92
f 95 92 93
f 87 88 95
f 95 88 89
f 95 89 90
f 84 85 95
f 95 85 86
f 95 86 87
f 81 82 95
f 95 82 83
f 95 83 84
f 78 79 95
f 95 79 80
f 95 80 81
f 75 76 95
f 95 76 77
f 95 77 78
f 72 73 95
f 95 73 74
f 95 74 75
f 69 70 95
f 95 70 71
f 95 71 72
f 66 67 95
f 95 67 68
f 95 68 69
f 63 64 95
f 95 64 65
f 95 65 66
f 60 61 95
f 95 61 62
f 95 62 63
f 96 97 98
f 99 100 101
f 101 102 99
f 99 102 103
f 99 103 97
f 97 103 104
f 97 104 98
f 98 105 96
f 96 105 106
f 96 106 100
f 100 106 107
f 100 107 101
f 108 109 5
f 110 57 109
f 109 57 56
f 109 56 5
f 5 7 108
f 108 7 19
f 108 19 111
f 19 22 111
f 111 22 1
f 111 1 110
f 110 1 3
f 110 3 57
f 96 100 110
f 110 100 111
f 97 96 109
f 109 96 110
f 99 97 108
f 108 97 109
f 100 99 111
f 111 99 108
f 112 113 114
f 114 113 115
f 116 112 117
f 117 112 114
f 113 118 115
f 115 118 119
f 105 112 106
f 106 112 116
f 104 118 98
f 98 118 113
f 113 112 98
f 98 112 105
f 107 117 101
f 101 117 114
f 102 115 103
f 103 115 119
f 101 114 102
f 102 114 115
f 119 118 103
f 103 118 104
f 116 117 106
f 106 117 107

