# https://github.com/mikedh/trimesh

o eSeries_UR5e_058-mesh
v -0.00191116 0.06691847 0.04351674
v -0.00207875 0.06551463 0.04341122
v 0.00193065 0.06590115 0.04344882
v 0.00218376 0.06834097 0.04344324
v -0.00001027 0.06993876 0.04343146
v 0.00291639 0.07131717 0.04086726
v 0.00093317 0.07215471 0.04085157
v 0.00118257 0.07179356 0.04191377
v 0.00150885 0.07061574 0.04303644
v 0.00449947 0.06925579 0.04124159
v 0.00324964 0.07044609 0.04214318
v 0.00344245 0.06852852 0.04300194
v 0.00485458 0.06728775 0.04129005
v 0.00369438 0.06673752 0.04294148
v 0.00452985 0.06561809 0.04130989
v 0.00338446 0.06383483 0.04131490
v 0.00290049 0.06447133 0.04263338
v 0.00190015 0.06461811 0.04316552
v 0.00022468 0.06318270 0.04256284
v -0.00226917 0.06353149 0.04218797
v -0.00137716 0.06264698 0.04115178
v -0.00078220 0.06443763 0.04334218
v -0.00340340 0.06388697 0.04134743
v -0.00332505 0.06515531 0.04269587
v -0.00438169 0.06525964 0.04134745
v -0.00486625 0.06703262 0.04127229
v -0.00369728 0.06717961 0.04297021
v -0.00450760 0.06907629 0.04155297
v -0.00333281 0.06896051 0.04290634
v -0.00203089 0.06945986 0.04333995
v -0.00369662 0.07055933 0.04085151
v -0.00370917 0.07007581 0.04190701
v -0.00235859 0.07158400 0.04130986
v -0.00143869 0.07103824 0.04276620
v -0.00076745 0.07213514 0.04130987
v 0.00158691 0.06276570 0.04130985
v 0.00012230 0.06253001 0.04138530
v 0.00406555 0.07025172 0.03943552
v 0.00498139 0.06695980 0.03943565
v 0.00165307 0.07201679 0.03943552
v -0.00090314 0.07221776 0.03943552
v -0.00321730 0.07111374 0.03943552
v -0.00483819 0.06859508 0.03943552
v -0.00474539 0.06603865 0.03943552
v -0.00376639 0.06413027 0.03943552
v -0.00124773 0.06250933 0.03943552
v 0.00173499 0.06270794 0.03943552
v 0.00382232 0.06419709 0.03943552
v -0.00000007 0.09089456 0.02443572
v 0.00302824 0.09269357 0.02504035
v 0.00253887 0.09269492 0.02273697
v 0.00085275 0.09269492 0.02150244
v -0.00098282 0.09269572 0.02157088
v -0.00246476 0.09269492 0.02263092
v -0.00305253 0.09269357 0.02490344
v -0.00180475 0.09269492 0.02690050
v 0.00020152 0.09269492 0.02748391
v 0.00190289 0.09269572 0.02679209
v -0.01821932 0.08979716 0.02192024
v -0.01512100 0.08979716 0.01294452
v -0.01840623 0.08979716 0.01237352
v -0.01297534 0.08979716 0.01597871
v -0.01309344 0.08979716 0.01841866
v -0.01463430 0.08979716 0.02094169
v -0.02231567 0.08979716 0.01866382
v -0.02047239 0.08979716 0.02097433
v -0.02214677 0.08979716 0.01537452
v -0.02067868 0.08979716 0.01337294
v 0.01713556 0.08979717 0.02192024
v 0.02023389 0.08979717 0.01294452
v 0.01694865 0.08979717 0.01237352
v 0.02237954 0.08979717 0.01597871
v 0.02226144 0.08979717 0.01841866
v 0.02072058 0.08979717 0.02094169
v 0.01305493 0.08979717 0.01827549
v 0.01417271 0.08979717 0.02044759
v 0.01303770 0.08979717 0.01574543
v 0.01467621 0.08979717 0.01337294
v -0.01480465 0.08979716 -0.02213306
v -0.01839864 0.08979716 -0.02307826
v -0.01821932 0.08979716 -0.01343465
v -0.01297534 0.08979716 -0.01937618
v -0.01309344 0.08979716 -0.01693622
v -0.01463430 0.08979716 -0.01441320
v -0.02229996 0.08979716 -0.01707940
v -0.02118218 0.08979716 -0.01490730
v -0.02231718 0.08979716 -0.01960946
v -0.02099502 0.08979716 -0.02166361
v 0.02055023 0.08979717 -0.02213306
v 0.01695624 0.08979717 -0.02307826
v 0.01713556 0.08979717 -0.01343465
v 0.02237954 0.08979717 -0.01937618
v 0.02226144 0.08979717 -0.01693622
v 0.02072058 0.08979717 -0.01441320
v 0.01305493 0.08979717 -0.01707940
v 0.01417271 0.08979717 -0.01490730
v 0.01303770 0.08979717 -0.01960946
v 0.01435986 0.08979717 -0.02166361
v 0.00129444 0.09269711 0.01518497
v 0.01382879 0.09269712 0.00707961
v -0.00384736 0.09269710 0.01476257
v -0.00857915 0.09269708 0.01270596
v -0.01489110 0.09269707 0.00471862
v -0.01239571 0.09269707 0.00923513
v -0.01579796 0.09269706 -0.00036288
v -0.01263255 0.09269707 -0.01004792
v -0.01501789 0.09269705 -0.00546684
v -0.00889537 0.09269710 -0.01361558
v 0.00139399 0.09269717 -0.01632933
v -0.00420368 0.09269714 -0.01578681
v 0.00663972 0.09269711 -0.01489435
v 0.01401371 0.09269707 -0.00785534
v 0.01091058 0.09269708 -0.01198573
v 0.01561777 0.09269706 -0.00294663
v 0.01555329 0.09269707 0.00221526
v 0.00629636 0.09269710 0.01392927
v 0.01062911 0.09269709 0.01112819
v 0.00482746 0.06863764 0.03643556
v 0.00475309 0.06606397 0.03643556
v 0.00379166 0.06415907 0.03643556
v 0.00129017 0.06251994 0.03643556
v -0.00169940 0.06269393 0.03643556
v -0.00379851 0.06416707 0.03643556
v -0.00475817 0.06608244 0.03643556
v -0.00487798 0.06821287 0.03643556
v -0.00402756 0.07017925 0.03643555
v -0.00210898 0.07187758 0.03643555
v 0.00129634 0.07217331 0.03643555
v 0.00348806 0.07082205 0.03643555
v 0.00079613 0.09879591 0.02140664
v -0.00105730 0.09878974 0.02151924
v -0.00267912 0.09879384 0.02278173
v -0.00309766 0.09880024 0.02505719
v -0.00200618 0.09880697 0.02681361
v -0.00025847 0.09879590 0.02755710
v 0.00153400 0.09881085 0.02714559
v 0.00272631 0.09880856 0.02602079
v 0.00310830 0.09878221 0.02413731
v 0.00237913 0.09878976 0.02244485
v -0.01857369 0.09838392 0.01240246
v -0.02078803 0.09839350 0.01346277
v -0.02219657 0.09839350 0.01550698
v -0.02239592 0.09839908 0.01797433
v -0.02078625 0.09838714 0.02088603
v -0.01721490 0.09839091 0.02192808
v -0.01422847 0.09839091 0.02050448
v -0.01294769 0.09839790 0.01790779
v -0.01318295 0.09839350 0.01543972
v -0.01527197 0.09838634 0.01285800
v 0.01680891 0.09839349 0.01239666
v 0.01456688 0.09839349 0.01346274
v 0.01299491 0.09839091 0.01590162
v 0.01346606 0.09838570 0.01959569
v 0.01646572 0.09839091 0.02179601
v 0.01895357 0.09839017 0.02170602
v 0.02112644 0.09839093 0.02050445
v 0.02240719 0.09839791 0.01790779
v 0.02188825 0.09838634 0.01463070
v 0.01928077 0.09839793 0.01259341
v -0.01771340 0.09839348 -0.02303737
v -0.02088104 0.09836753 -0.02193230
v -0.02249927 0.09839089 -0.01862193
v -0.02136830 0.09836776 -0.01503770
v -0.01805807 0.09839090 -0.01341964
v -0.01450132 0.09838634 -0.01452551
v -0.01285576 0.09839090 -0.01786079
v -0.01354385 0.09839789 -0.02067341
v -0.01531022 0.09839350 -0.02241254
v 0.01805759 0.09839091 -0.02306315
v 0.01486919 0.09839090 -0.02217947
v 0.01315728 0.09839790 -0.01984470
v 0.01309923 0.09838635 -0.01652780
v 0.01531027 0.09839349 -0.01407009
v 0.01817352 0.09837687 -0.01343095
v 0.02112645 0.09839092 -0.01485045
v 0.02249913 0.09839091 -0.01786080
v 0.02181102 0.09839791 -0.02067341
v 0.02037561 0.09839017 -0.02217075
v 0.00116947 0.09789771 0.01523682
v -0.00478324 0.09789340 0.01448984
v -0.00841754 0.09789705 0.01274782
v -0.01124451 0.09789416 0.01053046
v -0.01414663 0.09791070 0.00646318
v -0.01565470 0.09788833 0.00155130
v -0.01553148 0.09790376 -0.00344698
v -0.01381261 0.09790385 -0.00822990
v -0.01060750 0.09788904 -0.01227136
v -0.00641282 0.09790388 -0.01500222
v -0.00252638 0.09789706 -0.01610980
v 0.00161018 0.09789049 -0.01628509
v 0.00498752 0.09789706 -0.01550306
v 0.00865889 0.09791252 -0.01377733
v 0.01239946 0.09790388 -0.01035224
v 0.01486547 0.09790382 -0.00590812
v 0.01575611 0.09792104 -0.00131957
v 0.01543141 0.09789706 0.00258653
v 0.01413433 0.09790346 0.00648715
v 0.01116294 0.09790327 0.01061059
v 0.00702629 0.09791093 0.01358124
v -0.02121122 0.09892185 0.02129417
v -0.01707898 0.09889544 0.02242462
v -0.01380536 0.09889526 0.02079735
v -0.02286947 0.09889652 0.01812429
v -0.01880698 0.09889658 0.01192399
v -0.02224297 0.09889141 0.01409926
v -0.01222189 0.09889429 0.01653489
v -0.01510132 0.09889393 0.01236545
v 0.02277560 0.09889364 0.01883575
v 0.02261654 0.09889647 0.01519170
v 0.02025906 0.09889422 0.01239132
v 0.02044869 0.09889660 0.02162347
v 0.01339841 0.09889491 0.02049567
v 0.01734469 0.09889545 0.02244785
v 0.01616553 0.09889590 0.01198661
v 0.01322411 0.09889545 0.01415803
v 0.01238865 0.09889658 0.01711340
v -0.01891709 0.09889182 -0.01292666
v -0.01409674 0.09889394 -0.01419669
v -0.01234315 0.09889544 -0.01790871
v -0.02230437 0.09889646 -0.02080444
v -0.02288006 0.09891642 -0.02062104
v -0.02246371 0.09889559 -0.01586230
v -0.02087775 0.09893521 -0.02263449
v -0.01361453 0.09889411 -0.02180937
v -0.01734491 0.09889544 -0.02357568
v 0.02201620 0.09892903 -0.02149627
v 0.01935726 0.09889372 -0.02335731
v 0.01840382 0.09889567 -0.01292740
v 0.02155005 0.09889571 -0.01455740
v 0.02301188 0.09889560 -0.01790870
v 0.01305051 0.09889647 -0.02080444
v 0.01238469 0.09889343 -0.01716295
v 0.01472183 0.09889560 -0.01378799
v 0.01529801 0.09889572 -0.02302750
v 0.00401830 0.09889633 -0.01687899
v 0.00896716 0.09889669 -0.01474827
v 0.01390150 0.09889552 -0.01015924
v 0.01674066 0.09889579 -0.00266430
v 0.01613944 0.09889647 0.00411127
v 0.01382869 0.09889663 0.00898128
v 0.00994773 0.09889674 0.01299910
v 0.00532082 0.09889633 0.01537418
v 0.00027228 0.09889659 0.01621729
v -0.00494674 0.09889643 0.01548276
v -0.00969212 0.09889679 0.01315932
v -0.01359478 0.09889668 0.00929300
v -0.01611456 0.09889641 0.00423328
v -0.01674136 0.09889633 -0.00266437
v -0.01455200 0.09889656 -0.00896542
v -0.01133169 0.09889671 -0.01294468
v -0.00681855 0.09889665 -0.01594483
v -0.00159503 0.09889663 -0.01728657
v 0.00488586 0.06817533 0.03343238
v 0.00475182 0.06605351 0.03343238
v 0.00377477 0.06413681 0.03343238
v 0.00166368 0.06267952 0.03343238
v -0.00044925 0.06244307 0.03343238
v -0.00209484 0.06281997 0.03339410
v -0.00381750 0.06418757 0.03343238
v -0.00476230 0.06609214 0.03343238
v -0.00502466 0.06710014 0.03340233
v -0.00407173 0.07024676 0.03343238
v -0.00206323 0.07181938 0.03343238
v -0.00040930 0.07225533 0.03343238
v 0.00214814 0.07186072 0.03343238
v 0.00404559 0.07015588 0.03343238
v 0.01075549 0.09889721 0.02806846
v -0.01558782 0.09889751 0.02585292
v 0.00213075 0.09889714 0.02990981
v -0.00562474 0.09889714 0.02949817
v -0.02680220 0.09889748 0.01421237
v -0.03042225 0.09889765 0.00358705
v 0.03049498 0.09889710 -0.00186288
v 0.01830880 0.09889716 0.02390153
v 0.02394840 0.09889715 0.01835978
v 0.02930018 0.09889867 0.00879429
v -0.01423377 0.09889718 -0.02759326
v -0.00577370 0.09889718 -0.03062226
v -0.02994916 0.09889752 -0.00686796
v -0.02690574 0.09889717 -0.01503006
v 0.00485613 0.09889753 -0.03079382
v 0.01594550 0.09889758 -0.02680285
v 0.02830464 0.09889853 -0.01260266
v 0.01289682 0.09791734 0.02823103
v 0.00739874 0.09789706 0.03005441
v 0.01922230 0.09788535 0.02445751
v 0.02324138 0.09789707 0.02069773
v 0.03148568 0.09789707 0.00036950
v 0.03089846 0.09790205 0.00582635
v 0.02787300 0.09786866 0.01441069
v 0.03088982 0.09786866 -0.00741674
v 0.02757780 0.09790203 -0.01589411
v 0.02193969 0.09787731 -0.02336588
v 0.00542674 0.09789191 -0.03173765
v 0.01430874 0.09790202 -0.02868529
v -0.00392495 0.09791734 -0.03186995
v -0.01290053 0.09790535 -0.02945766
v -0.02214182 0.09787729 -0.02316979
v -0.03154155 0.09788530 -0.00140399
v -0.03046571 0.09790202 -0.00877375
v -0.02768517 0.09790202 -0.01569961
v -0.02559308 0.09789705 0.01779970
v -0.02843763 0.09790202 0.01310582
v -0.03085287 0.09790202 0.00604367
v -0.02183697 0.09791728 0.02220945
v -0.01759722 0.09789705 0.02556204
v -0.01254078 0.09791734 0.02838794
v 0.00198017 0.09790202 0.03092627
v -0.00547199 0.09790202 0.03051040
v -0.00220006 0.09239714 0.03090907
v -0.00953106 0.09239714 0.02951188
v -0.01632848 0.09239713 0.02643194
v -0.02366088 0.09239713 0.02044299
v -0.02862421 0.09239713 0.01270451
v -0.03135996 0.09239713 0.00364108
v -0.03115348 0.09239713 -0.00554966
v -0.02911081 0.09239713 -0.01272769
v -0.02426985 0.09239713 -0.02086418
v -0.01734931 0.09239713 -0.02691528
v -0.01067424 0.09239713 -0.03025320
v -0.00340213 0.09239714 -0.03192973
v 0.00406030 0.09239714 -0.03185132
v 0.01129558 0.09239714 -0.03002235
v 0.01789904 0.09239714 -0.02654491
v 0.02486351 0.09239715 -0.02013238
v 0.02935982 0.09239715 -0.01211334
v 0.03125120 0.09239715 -0.00489397
v 0.03122069 0.09239715 0.00457305
v 0.02833894 0.09239715 0.01330303
v 0.02302455 0.09239715 0.02113840
v 0.01402696 0.09239714 0.02779751
v 0.00525419 0.09239714 0.03054531
v -0.00433336 0.06431314 0.03342841
v 0.00046117 0.06207755 0.03342841
v 0.00299045 0.06307649 0.03343009
v 0.00479436 0.06511177 0.03342842
v 0.00511088 0.06871682 0.03342957
v 0.00337184 0.07136590 0.03342947
v 0.00046091 0.07261769 0.03342874
v -0.00303421 0.07168089 0.03342842
v -0.00492946 0.06914151 0.03342947
v 0.03458653 0.09239772 -0.00671829
v 0.03081096 0.09239765 -0.01743968
v 0.02521114 0.09239730 -0.02490781
v 0.01602895 0.09239843 -0.03195649
v 0.00332352 0.09239771 -0.03553623
v -0.02240293 0.09239854 0.02664880
v -0.01265901 0.09239729 0.03211597
v -0.00332367 0.09239764 0.03440850
v 0.00801724 0.09239765 0.03363897
v 0.01671204 0.09239732 0.03024074
v -0.00995136 0.09239844 -0.03437807
v -0.01994487 0.09239728 -0.02938104
v -0.02838577 0.09239843 -0.02146082
v 0.02596003 0.09239845 0.02327935
v 0.03280872 0.09239765 0.01199378
v 0.03487531 0.09239730 0.00289060
v -0.03453653 0.09239854 -0.00761036
v -0.03458673 0.09239763 0.00559050
v -0.03081101 0.09239763 0.01631205
v 0.01292840 0.06011039 0.03464553
v 0.01578224 0.06133607 0.03343557
v 0.00815252 0.05869438 0.03607260
v 0.00210099 0.05785262 0.03690532
v -0.01579591 0.06131824 0.03343565
v -0.01217724 0.05982596 0.03493402
v -0.00708752 0.05849776 0.03626442
v -0.00327031 0.05794603 0.03680706
v 0.01292588 0.07459347 0.03465074
v -0.01578411 0.07335795 0.03343551
v 0.01579742 0.07337783 0.03343563
v 0.00920964 0.07573520 0.03579503
v 0.00410392 0.07666684 0.03673857
v -0.00212426 0.07683978 0.03690653
v -0.00839656 0.07594896 0.03601304
v -0.01299016 0.07456114 0.03462179
v -0.00218703 0.08992774 0.03689349
v -0.00950734 0.08992393 0.03575470
v -0.01574570 0.08989716 0.03346965
v -0.02097842 0.08990215 0.03058173
v -0.02857819 0.08990507 0.02393558
v -0.03403079 0.08990198 0.01531285
v -0.03664814 0.08990199 0.00762634
v -0.03755199 0.08990200 -0.00044333
v -0.03669998 0.08990201 -0.00851866
v -0.03413186 0.08990199 -0.01622226
v -0.02996804 0.08990202 -0.02319307
v -0.02291720 0.08990508 -0.03042592
v -0.01218242 0.08990508 -0.03618030
v -0.00215366 0.08990199 -0.03805428
v 0.00595547 0.08990203 -0.03764075
v 0.01378704 0.08990202 -0.03549356
v 0.02264358 0.08990507 -0.03063383
v 0.03105968 0.08990506 -0.02182949
v 0.03554763 0.08990203 -0.01266855
v 0.03731868 0.08990203 -0.00474389
v 0.03717363 0.08990509 0.00535650
v 0.03413193 0.08990203 0.01509392
v 0.02996795 0.08990203 0.02206523
v 0.02440253 0.08990202 0.02797857
v 0.01933295 0.08989717 0.03156783
v 0.01304792 0.08990936 0.03463248
v 0.00549763 0.08991963 0.03655643
v 0.03674733 0.05314763 -0.00828364
v 0.03754772 0.05314763 -0.00020365
v 0.03663054 0.05314763 -0.00056396
v 0.03640821 0.05314763 0.00346577
v 0.03612745 0.05314763 0.00999814
v 0.03574394 0.05314763 0.00744656
v 0.03464578 0.05314763 0.01133005
v 0.03312708 0.05314763 0.01506914
v 0.03198708 0.05314763 0.01910299
v 0.03120626 0.05314763 0.01861854
v 0.02890663 0.05314763 0.02193501
v 0.02701155 0.05314763 0.02551934
v 0.02625611 0.05314763 0.02497855
v 0.02328688 0.05314763 0.02771180
v 0.02065985 0.05314763 0.03080053
v 0.02003497 0.05314763 0.03010203
v 0.01653988 0.05314763 0.03211994
v 0.01325002 0.05314833 0.03454508
v 0.01284400 0.05314763 0.03374114
v 0.00899222 0.05314763 0.03494583
v 0.00591749 0.05314814 0.03651616
v 0.00503128 0.05314762 0.03571950
v 0.00100927 0.05314762 0.03605275
v -0.00358460 0.05314801 0.03687509
v -0.00302499 0.05314762 0.03594155
v -0.00702254 0.05314762 0.03538723
v -0.01093484 0.05314762 0.03439652
v -0.01330756 0.05314812 0.03452478
v -0.01471441 0.05314762 0.03298138
v -0.01831536 0.05314762 0.03115901
v -0.02070803 0.05314704 0.03081103
v -0.02169400 0.05314762 0.02895165
v -0.02480930 0.05314761 0.02638614
v -0.02901646 0.05314761 0.02341107
v -0.02762344 0.05314761 0.02349334
v -0.03010228 0.05314761 0.02030857
v -0.03221571 0.05314761 0.01687039
v -0.03422890 0.05314761 0.01487468
v -0.03393809 0.05314761 0.01322053
v -0.03524851 0.05314761 0.00940344
v -0.03674744 0.05314761 0.00715585
v -0.03613106 0.05314761 0.00546526
v -0.03657503 0.05314761 0.00145396
v -0.03755345 0.05314761 -0.00311254
v -0.03657503 0.05314761 -0.00258188
v -0.03613106 0.05314761 -0.00659306
v -0.03524851 0.05314761 -0.01053124
v -0.03546729 0.05314761 -0.01289439
v -0.03393809 0.05314761 -0.01434833
v -0.03221571 0.05314761 -0.01799818
v -0.03086439 0.05314761 -0.02210791
v -0.03010228 0.05314761 -0.02143637
v -0.02762344 0.05314761 -0.02462114
v -0.02480930 0.05314761 -0.02751393
v -0.02236963 0.05314761 -0.03083525
v -0.02169400 0.05314761 -0.03007957
v -0.01831536 0.05314761 -0.03228693
v -0.01471441 0.05314761 -0.03410918
v -0.01356302 0.05314762 -0.03557841
v -0.01093484 0.05314762 -0.03552432
v -0.00702254 0.05314762 -0.03651503
v -0.00571834 0.05314762 -0.03767543
v -0.00302499 0.05314762 -0.03706934
v 0.00100927 0.05314762 -0.03718055
v 0.00239249 0.05314762 -0.03803716
v 0.00503128 0.05314762 -0.03684730
v 0.00899222 0.05314762 -0.03607363
v 0.01250279 0.05314762 -0.03606650
v 0.01284400 0.05314762 -0.03486893
v 0.01653988 0.05314763 -0.03324774
v 0.02003497 0.05314763 -0.03122983
v 0.02318456 0.05314763 -0.03021566
v 0.02328688 0.05314763 -0.02883972
v 0.02625611 0.05314763 -0.02610635
v 0.02890663 0.05314763 -0.02306293
v 0.03010972 0.05314763 -0.02299965
v 0.03120626 0.05314763 -0.01974633
v 0.03312708 0.05314763 -0.01619706
v 0.03422858 0.05314763 -0.01600304
v 0.03464578 0.05314763 -0.01245785
v 0.03574394 0.05314763 -0.00857435
v 0.03640821 0.05314763 -0.00459357
vn -0.14256828 -0.00580321 0.98976796
vn -0.24199145 -0.22566292 0.94367176
vn 0.18171956 -0.11763297 0.97628914
vn 0.19023112 0.09286060 0.97733773
vn 0.00005476 0.27469753 0.96153069
vn 0.58282401 0.79704616 0.15822005
vn 0.18437301 0.97349842 0.13530491
vn 0.21805641 0.84243371 0.49270361
vn 0.23066831 0.51066720 0.82825789
vn 0.89413269 0.35710232 0.27019375
vn 0.61193378 0.57522712 0.54281748
vn 0.57148018 0.19410695 0.79732860
vn 0.94817046 0.01442538 0.31743453
vn 0.61370112 -0.10419792 0.78263256
vn 0.88734878 -0.35293027 0.29673618
vn 0.65908541 -0.69762238 0.28094381
vn 0.52015895 -0.50740277 0.68700589
vn 0.24829368 -0.40457919 0.88015108
vn 0.04811768 -0.72618345 0.68581505
vn -0.40130927 -0.70093814 0.58960715
vn -0.29714907 -0.92251936 0.24629343
vn -0.10512456 -0.37736122 0.92008007
vn -0.66061340 -0.69994624 0.27141333
vn -0.58267375 -0.37700968 0.71996875
vn -0.86590010 -0.39293959 0.30954078
vn -0.95323638 -0.06468039 0.29522340
vn -0.60753099 -0.02795042 0.79380405
vn -0.88027801 0.31606345 0.35385664
vn -0.54170586 0.26471299 0.79779809
vn -0.26061235 0.25918219 0.93000311
vn -0.75824499 0.64061071 0.12117116
vn -0.66532769 0.54630124 0.50881630
vn -0.46950849 0.83518155 0.28641501
vn -0.23900835 0.63703650 0.73284344
vn -0.13933284 0.94216806 0.30480438
vn 0.33465463 -0.89274501 0.30168300
vn 0.02335644 -0.96309267 0.26815479
vn 0.81360370 0.58118987 0.01635123
vn 0.99721209 -0.07227378 0.01856215
vn 0.35336796 0.93548164 -0.00227876
vn -0.17873727 0.98383476 0.01105242
vn -0.65729512 0.75351260 0.01348629
vn -0.96668622 0.25543467 0.01645823
vn -0.96660051 -0.25628320 0.00153832
vn -0.74268855 -0.66953401 0.01174405
vn -0.25523619 -0.96678634 0.01336607
vn 0.34759809 -0.93752506 0.01491099
vn 0.77651927 -0.63000888 0.01032588
vn 0.00049974 0.99999980 -0.00037701
vn -0.86810539 0.47014674 -0.15923278
vn -0.74028302 0.46632121 0.48427841
vn -0.25760102 0.46446051 0.84730051
vn 0.28641819 0.46552865 0.83740533
vn 0.72815421 0.46360616 0.50483738
vn 0.87703009 0.46066641 -0.13639898
vn 0.53591060 0.46360016 -0.70560238
vn -0.04664343 0.46900792 -0.88196143
vn -0.56027799 0.47302693 -0.67995154
vn 0.05681674 0.64505250 -0.76202305
vn -0.41147294 0.63384444 0.65492843
vn 0.09230470 0.64906375 0.75511329
vn -0.73367725 0.64522552 0.21307680
vn -0.71833550 0.65963005 -0.22109345
vn -0.46543320 0.63872266 -0.61270328
vn 0.73390505 0.63839795 -0.23201602
vn 0.44951517 0.66049649 -0.60139878
vn 0.71633860 0.64935013 0.25534960
vn 0.47318315 0.65458817 0.58958632
vn 0.07668452 0.64371151 -0.76141643
vn -0.40647285 0.63928897 0.65275527
vn 0.09565549 0.65141874 0.75266437
vn -0.73263964 0.64872169 0.20591096
vn -0.71833541 0.65963025 -0.22109314
vn -0.46515937 0.63965737 -0.61193562
vn 0.72889071 0.66227797 -0.17351147
vn 0.53260123 0.64952346 -0.54263727
vn 0.72893074 0.64664136 0.22475525
vn 0.48275874 0.65194384 0.58473346
vn -0.44386422 0.64212356 0.62502951
vn 0.09213794 0.63724511 0.76513349
vn 0.07771653 0.63543013 -0.76823739
vn -0.73261951 0.65050729 0.20027211
vn -0.71770228 0.65902998 -0.22490647
vn -0.46430776 0.63441518 -0.61800945
vn 0.72715767 0.66212076 -0.18121209
vn 0.53385616 0.64478737 -0.54703459
vn 0.72773800 0.65108998 0.21559045
vn 0.51385707 0.66053144 0.54740217
vn -0.44561700 0.64397843 0.62186595
vn 0.09446297 0.64015867 0.76241303
vn 0.07549369 0.64430455 -0.76103374
vn -0.73261935 0.65050732 0.20027259
vn -0.71700390 0.66050409 -0.22279981
vn -0.46549181 0.63885382 -0.61252198
vn 0.72948351 0.66200349 -0.17206159
vn 0.53408838 0.65029115 -0.54025089
vn 0.73353138 0.64447635 0.21582852
vn 0.52093779 0.65633985 0.54574886
vn -0.06232244 0.67504682 -0.73513788
vn -0.64532706 0.67492473 -0.35781224
vn 0.17549667 0.67352746 -0.71802624
vn 0.39750456 0.67698776 -0.61941723
vn 0.69373616 0.67732416 -0.24487164
vn 0.57756799 0.67758536 -0.45529473
vn 0.73507189 0.67793625 -0.00847099
vn 0.58744963 0.67780579 0.44213375
vn 0.69861261 0.67787380 0.22897062
vn 0.41316963 0.67848224 0.60741478
vn -0.06271533 0.67410986 0.73596378
vn 0.19048197 0.67851890 0.70945664
vn -0.30567650 0.67875599 0.66772163
vn -0.65173692 0.67796297 0.34000765
vn -0.50712861 0.67818336 0.53187207
vn -0.72696866 0.67777445 0.11017425
vn -0.72527078 0.67571250 -0.13188974
vn -0.29004929 0.67272042 -0.68067514
vn -0.49539873 0.67506494 -0.54668768
vn 0.96653942 0.25650623 0.00247291
vn 0.96588007 -0.25896053 -0.00389017
vn 0.74813608 -0.66353511 -0.00368282
vn 0.26556184 -0.96409074 0.00243988
vn -0.33911056 -0.94067731 0.01141120
vn -0.76085737 -0.64889275 0.00585361
vn -0.96717005 -0.25410832 0.00332473
vn -0.98614209 0.16587055 -0.00327781
vn -0.81187273 0.58381790 0.00439588
vn -0.40527273 0.91418734 -0.00394055
vn 0.24744598 0.96877819 0.01546923
vn 0.69527660 0.71850944 0.01829285
vn -0.15943286 0.77711123 0.60883438
vn 0.21759366 0.77465555 0.59376912
vn 0.51948700 0.79496128 0.31332064
vn 0.59133004 0.79723617 -0.12142192
vn 0.41251091 0.77806563 -0.47376009
vn 0.05494754 0.76891938 -0.63698019
vn -0.31079409 0.75966544 -0.57124027
vn -0.54487209 0.77515818 -0.31975648
vn -0.62964221 0.77422640 0.06421967
vn -0.48048109 0.77361789 0.41310203
vn 0.12718188 0.40497847 0.90543758
vn 0.58108329 0.30264278 0.75547969
vn 0.94338767 0.23877738 0.23022829
vn 0.90416564 0.39517866 -0.16222923
vn 0.55633694 0.43035896 -0.71083077
vn -0.06113653 0.40751731 -0.91114871
vn -0.63575643 0.40797750 -0.65526188
vn -0.93262107 0.27399055 -0.23483422
vn -0.86554978 0.14647425 0.47892471
vn -0.48215855 0.40381685 0.77746710
vn 0.10778148 0.36656328 0.92412906
vn 0.60799264 0.30473123 0.73313288
vn 0.91531400 0.33404857 0.22497075
vn 0.81812609 0.38952699 -0.42301115
vn 0.32279839 0.27851624 -0.90456062
vn -0.24977100 0.33307645 -0.90921643
vn -0.70867820 0.27370265 -0.65027846
vn -0.95451837 0.29337990 -0.05313110
vn -0.81019654 0.28522996 0.51207952
vn -0.25821762 0.33472979 0.90624479
vn 0.07480103 0.39609435 0.91515795
vn 0.60284112 0.41401498 0.68203679
vn 0.95456250 0.29740411 0.01900596
vn 0.70453140 0.18214989 -0.68589863
vn -0.04261149 0.31828460 -0.94703705
vn -0.56758264 0.40821858 -0.71498779
vn -0.90712651 0.40560208 -0.11228737
vn -0.84598432 0.33393793 0.41568737
vn -0.44916366 0.25463747 0.85639463
vn -0.01148827 0.27183789 0.96227448
vn 0.56694068 0.36087178 0.74050647
vn 0.89899423 0.34314626 0.27213972
vn 0.86504951 0.31502447 -0.39044710
vn 0.42193084 0.40013564 -0.81355137
vn -0.07767208 0.40151593 -0.91255247
vn -0.64721972 0.41103519 -0.64199431
vn -0.90875341 0.40586531 -0.09716266
vn -0.82355062 0.39553433 0.40659188
vn -0.51954732 0.37791864 0.76632114
vn -0.07432890 0.38367454 -0.92047219
vn 0.26926335 0.39071781 -0.88024817
vn 0.47259848 0.38511985 -0.79267483
vn 0.66646665 0.36106881 -0.65226645
vn 0.83364704 0.36481874 -0.41465637
vn 0.93321411 0.33959936 -0.11740402
vn 0.90149811 0.38595478 0.19580619
vn 0.81095510 0.38939427 0.43671952
vn 0.61926446 0.38641801 0.68351493
vn 0.37937980 0.39947287 0.83456120
vn 0.15736707 0.38789635 0.90816960
vn -0.08451213 0.35726095 0.93017327
vn -0.31036356 0.38031732 0.87122511
vn -0.52156220 0.38663456 0.76058305
vn -0.70567657 0.38626297 0.59398779
vn -0.89214851 0.31147892 0.32718789
vn -0.92063198 0.38989433 0.02047371
vn -0.91395882 0.37020923 -0.16620593
vn -0.83073826 0.37297599 -0.41323463
vn -0.65974628 0.37124209 -0.65338668
vn -0.40743649 0.38389630 -0.82862485
vn -0.10222346 0.99283841 0.06182438
vn -0.03034291 0.95267082 -0.30248572
vn -0.23060848 0.94946307 -0.21293099
vn 0.31515291 0.94664719 -0.06736274
vn 0.06536863 0.94804957 0.31133414
vn 0.20872532 0.96863768 0.13481389
vn -0.23808473 0.97073303 0.03151264
vn -0.14335385 0.95730050 0.25104864
vn -0.25839617 0.96190388 -0.08928795
vn -0.27772279 0.95851591 0.06416626
vn -0.13285700 0.96407118 0.23003428
vn -0.16152500 0.94868221 -0.27186712
vn 0.18785903 0.96603507 -0.17744075
vn 0.01326538 0.95465268 -0.29742610
vn 0.08577808 0.95483753 0.28447744
vn 0.23367446 0.95953690 0.15711519
vn 0.28204587 0.95925473 -0.01674773
vn 0.06124668 0.97006873 -0.23497979
vn -0.18788471 0.95836485 -0.21502591
vn -0.30502702 0.95210742 -0.02121279
vn 0.26290347 0.94602392 0.18952704
vn -0.25610822 0.94766728 -0.19061822
vn 0.25157257 0.96227581 -0.10361715
vn -0.10019316 0.99484696 -0.01551926
vn -0.20087588 0.96306937 0.17929382
vn -0.01220169 0.95272308 0.30359489
vn 0.08082312 0.99343099 -0.08100920
vn -0.11117964 0.95085737 0.28897985
vn -0.04629971 0.95319928 -0.29877663
vn -0.22708204 0.95155451 -0.20731080
vn -0.31537937 0.94888503 -0.01237161
vn 0.26358404 0.95190764 0.15618994
vn 0.27382285 0.96104724 -0.03753999
vn 0.16775065 0.95674500 -0.23769460
vn 0.11003443 0.95749914 0.26662301
vn -0.08563187 0.93721596 0.33807312
vn -0.18988238 0.93677486 0.29393459
vn -0.26580624 0.94731930 0.17869861
vn -0.31789982 0.94716112 0.04272603
vn -0.32664382 0.94055564 -0.09305322
vn -0.27217112 0.94309889 -0.19101667
vn -0.19314492 0.94473836 -0.26488578
vn -0.09643747 0.94650760 -0.30793372
vn 0.01321015 0.93807032 -0.34619296
vn 0.09696152 0.93761080 -0.33389288
vn 0.19852406 0.93796502 -0.28427068
vn 0.27264209 0.94203310 -0.19555031
vn 0.31607364 0.94401364 -0.09452882
vn 0.32399943 0.94529265 0.03802858
vn 0.29715413 0.93940002 0.17095913
vn 0.24000938 0.93498869 0.26113529
vn 0.14120044 0.93908543 0.31333845
vn 0.03127299 0.93882621 0.34296844
vn 0.65086172 0.09921822 0.75268504
vn 0.64705269 -0.17194159 0.74280475
vn 0.48585496 -0.43113215 0.76030917
vn 0.24131269 -0.60786349 0.75648540
vn -0.07596910 -0.72092163 0.68884011
vn -0.28606486 -0.56576551 0.77335392
vn -0.51068153 -0.43419523 0.74207741
vn -0.91248321 -0.26277339 0.31356743
vn -0.60549446 -0.02740652 0.79537748
vn -0.55558274 0.39158733 0.73347609
vn -0.29691617 0.60758621 0.73666803
vn -0.04535301 0.66553990 0.74498305
vn 0.29376721 0.61499571 0.73176574
vn 0.54602535 0.38795883 0.74252560
vn 0.13827934 0.90726935 0.39716641
vn -0.22586746 0.89153351 0.39262182
vn 0.02388781 0.92116328 0.38844251
vn -0.07643960 0.91445208 0.39740959
vn -0.37247767 0.90387762 0.21039402
vn -0.47350216 0.87905693 0.05526858
vn 0.43093941 0.90204615 -0.02457594
vn 0.24009963 0.91228593 0.33179293
vn 0.34272229 0.90244868 0.26101304
vn 0.49272526 0.85397063 0.16720041
vn -0.23052170 0.89967655 -0.37073150
vn -0.10123225 0.89183110 -0.44089604
vn -0.43200594 0.89848762 -0.07804396
vn -0.35807316 0.91424934 -0.18955675
vn 0.06107122 0.91090920 -0.40806217
vn 0.26753455 0.87094502 -0.41216505
vn 0.48169444 0.85394904 -0.19682859
vn 0.38538802 0.40150633 0.83082413
vn 0.21682848 0.40724300 0.88720829
vn 0.56577718 0.36094959 0.74135793
vn 0.67579613 0.40560631 0.61545359
vn 0.91354421 0.40539617 0.03302928
vn 0.89385457 0.40918426 0.18328188
vn 0.79907523 0.42016763 0.43004411
vn 0.88289569 0.42774054 -0.19373497
vn 0.77345402 0.42941010 -0.46623583
vn 0.63364055 0.40425587 -0.65960355
vn 0.16772087 0.38025746 -0.90954603
vn 0.38720344 0.40730757 -0.82714814
vn -0.09189932 0.40144893 -0.91125917
vn -0.36635866 0.40782133 -0.83633910
vn -0.63315370 0.39401205 -0.66623636
vn -0.90971528 0.41416028 -0.02982221
vn -0.88439145 0.39025001 -0.25604040
vn -0.80882654 0.37440509 -0.45345392
vn -0.74513705 0.40418794 0.53047421
vn -0.83794073 0.39354688 0.37812192
vn -0.88938436 0.39724952 0.22624828
vn -0.63027080 0.39063580 0.67094142
vn -0.53761279 0.36439439 0.76038754
vn -0.34530539 0.42437453 0.83706060
vn 0.04667663 0.37866513 0.92435600
vn -0.15495218 0.37239594 0.91504704
vn -0.04680105 0.73091525 0.68086163
vn -0.20552683 0.73073666 0.65098591
vn -0.35882909 0.73169657 0.57953585
vn -0.50409894 0.74054013 0.44439236
vn -0.61376319 0.73585869 0.28601878
vn -0.66571609 0.74064789 0.09089990
vn -0.67371900 0.73170434 -0.10349624
vn -0.62682412 0.73217231 -0.26648685
vn -0.51897761 0.74142592 -0.42538201
vn -0.37519608 0.73918437 -0.55931598
vn -0.22039377 0.73216550 -0.64448450
vn -0.06731390 0.73568172 -0.67397421
vn 0.07514483 0.73242670 -0.67668633
vn 0.24040112 0.73439625 -0.63471998
vn 0.38739792 0.73464825 -0.55696929
vn 0.52846670 0.74220887 -0.41212734
vn 0.63025010 0.73392632 -0.25325277
vn 0.67791763 0.73050625 -0.08239116
vn 0.66070785 0.74175866 0.11514874
vn 0.61234333 0.73664188 0.28704421
vn 0.48873507 0.74145646 0.45976119
vn 0.29998906 0.74134445 0.60034571
vn 0.12071782 0.73067075 0.67197282
vn -0.00444047 -0.00839592 0.99995489
vn -0.00058132 0.00079990 0.99999951
vn 0.00126010 -0.00241012 0.99999630
vn 0.00180448 0.00024642 0.99999834
vn 0.00283546 0.00076898 0.99999568
vn 0.00186409 0.00220696 0.99999583
vn 0.00035165 -0.00094694 0.99999949
vn -0.00201831 0.00245223 0.99999496
vn 0.00734134 -0.00737812 0.99994583
vn 0.40734129 0.91017130 -0.07524151
vn 0.37198504 0.90771276 -0.19412542
vn 0.30417328 0.90593255 -0.29455871
vn 0.19667252 0.90067457 -0.38743417
vn 0.03958252 0.90975652 -0.41325089
vn -0.27767017 0.90078643 0.33389081
vn -0.14946230 0.91470809 0.37545989
vn -0.03712042 0.91143678 0.40976221
vn 0.09329867 0.90986003 0.40428960
vn 0.19480691 0.91418367 0.35541311
vn -0.11785901 0.90484186 -0.40910935
vn -0.22042728 0.90995683 -0.35126967
vn -0.34245602 0.90511799 -0.25196289
vn 0.31690255 0.90351681 0.28849636
vn 0.39202671 0.90760529 0.15022545
vn 0.40350240 0.91449076 0.02987396
vn -0.41515665 0.90575872 -0.08512401
vn -0.40750552 0.91043940 0.07098839
vn -0.36579450 0.90778499 0.20523350
vn 0.20342855 0.35979738 0.91058370
vn 0.31868104 0.05975085 0.94597687
vn 0.13060536 0.36374038 0.92229885
vn 0.03146852 0.35362872 0.93485639
vn -0.31638631 0.05974480 0.94674720
vn -0.18567126 0.36819724 0.91101974
vn -0.12285662 0.35986029 0.92488206
vn -0.04401589 0.37203196 0.92717572
vn 0.19934072 -0.37508492 0.90530358
vn -0.31932835 -0.06160024 0.94563990
vn 0.31692485 -0.06244124 0.94639301
vn 0.14044354 -0.36942911 0.91858464
vn 0.06011791 -0.36078950 0.93070767
vn -0.03444268 -0.35409492 0.93457503
vn -0.12774759 -0.36082921 0.92384135
vn -0.20494297 -0.36125718 0.90966567
vn -0.04340816 0.37269217 0.92693920
vn -0.22910677 0.38667207 0.89330554
vn -0.39463726 0.38538860 0.83410854
vn -0.51540820 0.38056673 0.76780424
vn -0.70110566 0.39324889 0.59481608
vn -0.84104201 0.37738231 0.38759634
vn -0.90278687 0.37423417 0.21195437
vn -0.91794654 0.39668980 0.00336893
vn -0.91142055 0.35901042 -0.20105744
vn -0.83131854 0.40674253 -0.37877434
vn -0.73770159 0.35668484 -0.57321225
vn -0.56022854 0.38012579 -0.73596764
vn -0.32145331 0.37223914 -0.87069271
vn -0.06332844 0.39520496 -0.91640741
vn 0.16107752 0.38442782 -0.90899356
vn 0.32972770 0.38402006 -0.86244318
vn 0.56218567 0.38358701 -0.73267201
vn 0.75798286 0.37634892 -0.53275086
vn 0.87006915 0.38764602 -0.30448355
vn 0.92253278 0.37550155 -0.08906093
vn 0.91299905 0.38027064 0.14773958
vn 0.83597190 0.38353629 0.39249318
vn 0.74635370 0.38772215 0.54095072
vn 0.59489220 0.38730337 0.70434322
vn 0.47900412 0.37886577 0.79184328
vn 0.32238854 0.38413807 0.86516101
vn 0.12258663 0.38505064 0.91471773
vn 0.71258772 -0.68542505 -0.14970389
vn 0.72941655 -0.68393968 0.01334200
vn 0.00000000 -1.00000000 0.00000000
vn 0.00000000 -1.00000000 0.00000000
vn 0.70491897 -0.67891249 0.20534621
vn 0.00000000 -1.00000000 0.00000000
vn 0.00000000 -1.00000000 0.00000000
vn 0.00000000 -1.00000000 0.00000000
vn 0.62418526 -0.68407805 0.37739897
vn 0.00000000 -1.00000000 0.00000000
vn 0.00000000 -1.00000000 0.00000000
vn 0.52363662 -0.68534466 0.50607053
vn 0.00000000 -1.00000000 0.00000000
vn 0.00000000 -1.00000000 0.00000000
vn 0.40139751 -0.68565821 0.60725025
vn 0.00000000 -1.00000000 0.00000000
vn 0.00016288 -0.99999987 0.00049064
vn 0.25963704 -0.68943142 0.67621959
vn 0.00027132 -0.99999969 0.00073369
vn 0.00022742 -0.99999968 0.00076792
vn 0.11196599 -0.68809800 0.71692731
vn 0.00006582 -0.99999983 0.00057951
vn 0.00003733 -0.99999977 0.00067445
vn -0.07238318 -0.68283394 0.72697901
vn -0.00002648 -0.99999992 0.00040189
vn -0.00015113 -0.99999980 0.00061133
vn -0.00017519 -0.99999977 0.00065006
vn -0.25339077 -0.68884821 0.67917691
vn -0.00028685 -0.99999979 0.00058543
vn 0.00026357 -0.99999993 -0.00026522
vn -0.41356621 -0.68125659 0.60403017
vn 0.00043846 -0.99999976 -0.00054443
vn 0.00025759 -0.99999990 -0.00036029
vn -0.56574457 -0.67613764 0.47198620
vn 0.00000000 -1.00000000 0.00000000
vn 0.00000000 -1.00000000 0.00000000
vn 0.00000000 -1.00000000 0.00000000
vn -0.66394765 -0.68235821 0.30587709
vn 0.00000000 -1.00000000 0.00000000
vn 0.00000000 -1.00000000 0.00000000
vn -0.71653685 -0.68254620 0.14389450
vn 0.00000000 -1.00000000 0.00000000
vn 0.00000000 -1.00000000 0.00000000
vn -0.73327783 -0.67824233 -0.04786398
vn 0.00000000 -1.00000000 0.00000000
vn 0.00000000 -1.00000000 0.00000000
vn 0.00000000 -1.00000000 0.00000000
vn -0.69001279 -0.68230830 -0.24153205
vn 0.00000000 -1.00000000 0.00000000
vn 0.00000000 -1.00000000 0.00000000
vn -0.60028545 -0.67575984 -0.42779203
vn 0.00000000 -1.00000000 0.00000000
vn 0.00000000 -1.00000000 0.00000000
vn 0.00000000 -1.00000000 0.00000000
vn -0.44359569 -0.67439549 -0.59026570
vn 0.00000000 -1.00000000 0.00000000
vn 0.00000000 -1.00000000 0.00000000
vn -0.00000353 -1.00000000 -0.00000944
vn -0.27160266 -0.68232550 -0.67872226
vn 0.00000002 -1.00000000 -0.00000078
vn 0.00000000 -1.00000000 0.00000000
vn -0.11090003 -0.68530753 -0.71976021
vn 0.00000000 -1.00000000 0.00000000
vn 0.00000000 -1.00000000 0.00000000
vn 0.05346953 -0.68363962 -0.72785842
vn 0.00000000 -1.00000000 0.00000000
vn 0.00000000 -1.00000000 0.00000000
vn 0.25162612 -0.67575721 -0.69284666
vn 0.00000215 -1.00000000 -0.00000061
vn -0.00001093 -1.00000000 0.00001921
vn -0.00000136 -1.00000000 0.00000397
vn 0.45009846 -0.67439546 -0.58532224
vn 0.00000000 -1.00000000 0.00000000
vn 0.00000000 -1.00000000 0.00000000
vn 0.00000000 -1.00000000 0.00000000
vn 0.58131528 -0.68233408 -0.44327503
vn 0.00000000 -1.00000000 0.00000000
vn 0.00000000 -1.00000000 0.00000000
vn 0.66385416 -0.68530498 -0.29942402
vn 0.00000000 -1.00000000 0.00000000
vn 0.00000000 -1.00000000 0.00000000
vn 0.00000000 -1.00000000 0.00000000
f 1//1 2//2 3//3
f 3//3 4//4 1//1
f 1//1 4//4 5//5
f 6//6 7//7 8//8
f 9//9 5//5 4//4
f 10//10 11//11 12//12
f 13//13 10//10 12//12
f 13//13 12//12 14//14
f 15//15 13//13 14//14
f 16//16 15//15 17//17
f 17//17 14//14 18//18
f 18//18 14//14 3//3
f 19//19 17//17 18//18
f 20//20 21//21 19//19
f 20//20 19//19 22//22
f 23//23 20//20 24//24
f 24//24 20//20 22//22
f 24//24 22//22 2//2
f 25//25 23//23 24//24
f 26//26 25//25 27//27
f 28//28 26//26 27//27
f 28//28 27//27 29//29
f 27//27 1//1 30//30
f 31//31 28//28 32//32
f 32//32 28//28 29//29
f 33//33 31//31 32//32
f 33//33 32//32 34//34
f 35//35 33//33 34//34
f 34//34 30//30 5//5
f 7//7 35//35 8//8
f 8//8 35//35 34//34
f 8//8 34//34 9//9
f 9//9 34//34 5//5
f 9//9 11//11 8//8
f 8//8 11//11 6//6
f 4//4 12//12 9//9
f 9//9 12//12 11//11
f 11//11 10//10 6//6
f 4//4 3//3 14//14
f 4//4 14//14 12//12
f 14//14 17//17 15//15
f 3//3 22//22 18//18
f 17//17 19//19 36//36
f 17//17 36//36 16//16
f 18//18 22//22 19//19
f 19//19 37//37 36//36
f 22//22 3//3 2//2
f 19//19 21//21 37//37
f 20//20 23//23 21//21
f 1//1 27//27 2//2
f 2//2 27//27 24//24
f 24//24 27//27 25//25
f 27//27 30//30 29//29
f 29//29 30//30 34//34
f 29//29 34//34 32//32
f 1//1 5//5 30//30
f 38//38 10//10 39//39
f 39//39 10//10 13//13
f 38//38 6//6 10//10
f 40//40 6//6 38//38
f 40//40 7//7 6//6
f 41//41 7//7 40//40
f 41//41 35//35 7//7
f 42//42 33//33 41//41
f 41//41 33//33 35//35
f 42//42 31//31 33//33
f 43//43 31//31 42//42
f 43//43 28//28 31//31
f 43//43 26//26 28//28
f 44//44 26//26 43//43
f 45//45 25//25 44//44
f 44//44 25//25 26//26
f 45//45 23//23 25//25
f 46//46 23//23 45//45
f 46//46 21//21 23//23
f 47//47 37//37 46//46
f 46//46 37//37 21//21
f 47//47 36//36 37//37
f 48//48 16//16 47//47
f 47//47 16//16 36//36
f 39//39 15//15 48//48
f 48//48 15//15 16//16
f 39//39 13//13 15//15
f 49//49 50//50 51//51
f 51//51 52//52 49//49
f 52//52 53//53 49//49
f 53//53 54//54 49//49
f 49//49 54//54 55//55
f 55//55 56//56 49//49
f 49//49 56//56 57//57
f 57//57 58//58 49//49
f 58//58 50//50 49//49
f 59//59 60//60 61//61
f 59//59 62//62 60//60
f 59//59 63//63 62//62
f 59//59 64//64 63//63
f 65//65 66//66 59//59
f 59//59 67//67 65//65
f 59//59 68//68 67//67
f 59//59 61//61 68//68
f 69//69 70//70 71//71
f 69//69 72//72 70//70
f 69//69 73//73 72//72
f 69//69 74//74 73//73
f 69//69 75//75 76//76
f 69//69 77//77 75//75
f 69//69 78//78 77//77
f 69//69 71//71 78//78
f 79//79 80//80 81//81
f 81//81 82//82 79//79
f 81//81 83//83 82//82
f 81//81 84//84 83//83
f 81//81 85//85 86//86
f 81//81 87//87 85//85
f 81//81 88//88 87//87
f 81//81 80//80 88//88
f 89//89 90//90 91//91
f 91//91 92//92 89//89
f 91//91 93//93 92//92
f 91//91 94//94 93//93
f 91//91 95//95 96//96
f 91//91 97//97 95//95
f 91//91 98//98 97//97
f 91//91 90//90 98//98
f 99//99 100//100 101//101
f 100//100 102//102 101//101
f 103//103 104//104 100//100
f 100//100 104//104 102//102
f 100//100 105//105 103//103
f 106//106 107//107 100//100
f 100//100 107//107 105//105
f 100//100 108//108 106//106
f 109//109 110//110 100//100
f 100//100 110//110 108//108
f 100//100 111//111 109//109
f 112//112 113//113 100//100
f 100//100 113//113 111//111
f 100//100 114//114 112//112
f 100//100 115//115 114//114
f 99//99 116//116 100//100
f 100//100 116//116 117//117
f 118//118 39//39 119//119
f 119//119 39//39 48//48
f 119//119 48//48 120//120
f 120//120 48//48 47//47
f 120//120 47//47 121//121
f 121//121 47//47 46//46
f 121//121 46//46 122//122
f 122//122 46//46 45//45
f 122//122 45//45 123//123
f 123//123 45//45 44//44
f 123//123 44//44 124//124
f 124//124 44//44 43//43
f 124//124 43//43 125//125
f 125//125 43//43 126//126
f 126//126 43//43 42//42
f 126//126 42//42 127//127
f 127//127 42//42 41//41
f 127//127 41//41 128//128
f 128//128 41//41 40//40
f 128//128 40//40 38//38
f 128//128 38//38 129//129
f 129//129 38//38 118//118
f 118//118 38//38 39//39
f 52//52 130//130 53//53
f 53//53 130//130 131//131
f 53//53 131//131 54//54
f 54//54 131//131 132//132
f 54//54 132//132 55//55
f 55//55 132//132 133//133
f 55//55 133//133 56//56
f 56//56 133//133 134//134
f 56//56 134//134 135//135
f 56//56 135//135 57//57
f 57//57 135//135 136//136
f 57//57 136//136 58//58
f 58//58 136//136 137//137
f 58//58 137//137 50//50
f 50//50 137//137 138//138
f 50//50 138//138 51//51
f 51//51 138//138 139//139
f 51//51 139//139 52//52
f 52//52 139//139 130//130
f 61//61 140//140 68//68
f 68//68 140//140 141//141
f 68//68 141//141 67//67
f 67//67 141//141 142//142
f 67//67 142//142 65//65
f 65//65 142//142 143//143
f 65//65 143//143 144//144
f 65//65 144//144 66//66
f 66//66 144//144 59//59
f 59//59 144//144 145//145
f 59//59 145//145 64//64
f 64//64 145//145 146//146
f 64//64 146//146 63//63
f 63//63 146//146 147//147
f 63//63 147//147 62//62
f 62//62 147//147 148//148
f 62//62 148//148 60//60
f 60//60 148//148 149//149
f 60//60 149//149 61//61
f 61//61 149//149 140//140
f 71//71 150//150 78//78
f 78//78 150//150 151//151
f 78//78 151//151 77//77
f 77//77 151//151 152//152
f 77//77 152//152 75//75
f 75//75 152//152 153//153
f 75//75 153//153 76//76
f 76//76 153//153 154//154
f 76//76 154//154 69//69
f 69//69 154//154 155//155
f 69//69 155//155 74//74
f 74//74 155//155 156//156
f 74//74 156//156 73//73
f 73//73 156//156 157//157
f 73//73 157//157 72//72
f 72//72 157//157 158//158
f 72//72 158//158 70//70
f 70//70 158//158 159//159
f 70//70 159//159 71//71
f 71//71 159//159 150//150
f 80//80 160//160 161//161
f 80//80 161//161 88//88
f 88//88 161//161 87//87
f 87//87 161//161 162//162
f 87//87 162//162 85//85
f 85//85 162//162 163//163
f 85//85 163//163 86//86
f 86//86 163//163 81//81
f 81//81 163//163 164//164
f 81//81 164//164 84//84
f 84//84 164//164 165//165
f 84//84 165//165 83//83
f 83//83 165//165 166//166
f 83//83 166//166 82//82
f 82//82 166//166 167//167
f 82//82 167//167 79//79
f 79//79 167//167 168//168
f 79//79 168//168 80//80
f 80//80 168//168 160//160
f 90//90 169//169 170//170
f 90//90 170//170 98//98
f 98//98 170//170 97//97
f 97//97 170//170 171//171
f 97//97 171//171 172//172
f 97//97 172//172 95//95
f 95//95 172//172 96//96
f 96//96 172//172 173//173
f 96//96 173//173 91//91
f 91//91 173//173 174//174
f 91//91 174//174 94//94
f 94//94 174//174 175//175
f 94//94 175//175 93//93
f 93//93 175//175 176//176
f 93//93 176//176 92//92
f 92//92 176//176 177//177
f 92//92 177//177 89//89
f 89//89 177//177 178//178
f 89//89 178//178 169//169
f 89//89 169//169 90//90
f 179//179 99//99 101//101
f 101//101 180//180 179//179
f 102//102 180//180 101//101
f 102//102 181//181 180//180
f 104//104 182//182 102//102
f 102//102 182//182 181//181
f 103//103 183//183 104//104
f 104//104 183//183 182//182
f 105//105 184//184 103//103
f 103//103 184//184 183//183
f 107//107 185//185 105//105
f 105//105 185//185 184//184
f 106//106 186//186 107//107
f 107//107 186//186 185//185
f 108//108 187//187 106//106
f 106//106 187//187 186//186
f 110//110 188//188 108//108
f 108//108 188//188 187//187
f 109//109 189//189 110//110
f 110//110 189//189 188//188
f 109//109 190//190 189//189
f 111//111 191//191 109//109
f 109//109 191//191 190//190
f 111//111 192//192 191//191
f 113//113 192//192 111//111
f 113//113 193//193 192//192
f 112//112 193//193 113//113
f 112//112 194//194 193//193
f 114//114 194//194 112//112
f 114//114 195//195 194//194
f 115//115 195//195 114//114
f 115//115 196//196 195//195
f 100//100 197//197 115//115
f 115//115 197//197 196//196
f 117//117 198//198 100//100
f 100//100 198//198 197//197
f 116//116 199//199 117//117
f 117//117 199//199 198//198
f 99//99 179//179 116//116
f 116//116 179//179 199//199
f 144//144 200//200 145//145
f 145//145 200//200 201//201
f 145//145 201//201 146//146
f 146//146 201//201 202//202
f 146//146 202//202 147//147
f 143//143 203//203 144//144
f 144//144 203//203 200//200
f 140//140 204//204 141//141
f 141//141 204//204 205//205
f 141//141 205//205 142//142
f 142//142 205//205 143//143
f 143//143 205//205 203//203
f 202//202 206//206 147//147
f 147//147 206//206 148//148
f 148//148 206//206 149//149
f 149//149 206//206 207//207
f 149//149 207//207 140//140
f 140//140 207//207 204//204
f 157//157 208//208 158//158
f 158//158 208//208 209//209
f 158//158 209//209 210//210
f 158//158 210//210 159//159
f 155//155 211//211 156//156
f 156//156 211//211 208//208
f 156//156 208//208 157//157
f 153//153 212//212 154//154
f 154//154 212//212 213//213
f 154//154 213//213 155//155
f 155//155 213//213 211//211
f 159//159 210//210 150//150
f 150//150 210//210 214//214
f 150//150 214//214 151//151
f 151//151 214//214 215//215
f 151//151 215//215 152//152
f 152//152 215//215 216//216
f 152//152 216//216 153//153
f 153//153 216//216 212//212
f 163//163 217//217 164//164
f 164//164 217//217 165//165
f 165//165 217//217 218//218
f 165//165 218//218 166//166
f 166//166 218//218 219//219
f 166//166 219//219 167//167
f 161//161 220//220 162//162
f 162//162 220//220 221//221
f 162//162 221//221 222//222
f 162//162 222//222 163//163
f 163//163 222//222 217//217
f 161//161 223//223 220//220
f 219//219 224//224 167//167
f 167//167 224//224 168//168
f 168//168 224//224 225//225
f 168//168 225//225 160//160
f 160//160 225//225 161//161
f 161//161 225//225 223//223
f 177//177 226//226 178//178
f 178//178 226//226 227//227
f 174//174 228//228 175//175
f 175//175 228//228 229//229
f 175//175 229//229 176//176
f 176//176 229//229 230//230
f 176//176 230//230 177//177
f 177//177 230//230 226//226
f 171//171 231//231 232//232
f 171//171 232//232 172//172
f 172//172 232//232 233//233
f 172//172 233//233 173//173
f 173//173 233//233 174//174
f 174//174 233//233 228//228
f 178//178 227//227 169//169
f 169//169 227//227 234//234
f 169//169 234//234 170//170
f 170//170 234//234 231//231
f 170//170 231//231 171//171
f 190//190 191//191 235//235
f 235//235 191//191 236//236
f 236//236 191//191 192//192
f 236//236 192//192 237//237
f 192//192 193//193 237//237
f 193//193 194//194 237//237
f 237//237 194//194 238//238
f 194//194 195//195 238//238
f 238//238 195//195 196//196
f 238//238 196//196 239//239
f 196//196 197//197 239//239
f 239//239 197//197 240//240
f 197//197 198//198 240//240
f 240//240 198//198 241//241
f 241//241 198//198 199//199
f 241//241 199//199 242//242
f 199//199 179//179 242//242
f 242//242 179//179 243//243
f 243//243 179//179 244//244
f 179//179 180//180 244//244
f 244//244 180//180 245//245
f 245//245 180//180 181//181
f 181//181 182//182 245//245
f 245//245 182//182 246//246
f 182//182 183//183 246//246
f 246//246 183//183 247//247
f 247//247 183//183 184//184
f 247//247 184//184 248//248
f 248//248 184//184 185//185
f 248//248 185//185 186//186
f 248//248 186//186 249//249
f 249//249 186//186 187//187
f 249//249 187//187 250//250
f 250//250 187//187 251//251
f 251//251 187//187 188//188
f 251//251 188//188 189//189
f 251//251 189//189 252//252
f 252//252 189//189 190//190
f 252//252 190//190 235//235
f 253//253 119//119 254//254
f 254//254 119//119 120//120
f 254//254 120//120 255//255
f 255//255 120//120 121//121
f 255//255 121//121 256//256
f 256//256 121//121 257//257
f 257//257 121//121 122//122
f 257//257 122//122 258//258
f 258//258 122//122 123//123
f 258//258 123//123 259//259
f 259//259 123//123 124//124
f 259//259 124//124 260//260
f 260//260 124//124 125//125
f 260//260 125//125 261//261
f 261//261 125//125 262//262
f 262//262 125//125 126//126
f 262//262 126//126 127//127
f 262//262 127//127 263//263
f 263//263 127//127 264//264
f 264//264 127//127 128//128
f 264//264 128//128 265//265
f 265//265 128//128 129//129
f 265//265 129//129 266//266
f 266//266 129//129 118//118
f 266//266 118//118 253//253
f 253//253 118//118 119//119
f 212//212 130//130 139//139
f 206//206 131//131 130//130
f 206//206 130//130 212//212
f 206//206 132//132 131//131
f 138//138 267//267 212//212
f 138//138 212//212 139//139
f 267//267 138//138 137//137
f 268//268 133//133 132//132
f 268//268 132//132 206//206
f 136//136 269//269 137//137
f 137//137 269//269 267//267
f 135//135 269//269 136//136
f 270//270 133//133 268//268
f 135//135 270//270 269//269
f 135//135 134//134 270//270
f 270//270 134//134 133//133
f 207//207 246//246 247//247
f 207//207 247//247 204//204
f 204//204 247//247 248//248
f 246//246 207//207 245//245
f 245//245 207//207 206//206
f 203//203 271//271 200//200
f 204//204 248//248 205//205
f 205//205 248//248 272//272
f 203//203 205//205 271//271
f 271//271 205//205 272//272
f 202//202 268//268 206//206
f 268//268 201//201 200//200
f 202//202 201//201 268//268
f 214//214 210//210 273//273
f 216//216 215//215 241//241
f 241//241 215//215 240//240
f 273//273 238//238 214//214
f 240//240 215//215 214//214
f 240//240 214//214 239//239
f 239//239 214//214 238//238
f 211//211 213//213 274//274
f 274//274 213//213 267//267
f 267//267 213//213 212//212
f 275//275 208//208 211//211
f 275//275 211//211 274//274
f 273//273 210//210 276//276
f 276//276 210//210 209//209
f 276//276 209//209 275//275
f 275//275 209//209 208//208
f 223//223 225//225 277//277
f 277//277 225//225 224//224
f 277//277 224//224 278//278
f 221//221 220//220 223//223
f 248//248 217//217 272//272
f 272//272 217//217 279//279
f 279//279 217//217 222//222
f 279//279 222//222 280//280
f 280//280 222//222 221//221
f 278//278 224//224 219//219
f 251//251 219//219 250//250
f 250//250 219//219 218//218
f 250//250 218//218 249//249
f 249//249 218//218 248//248
f 248//248 218//218 217//217
f 281//281 231//231 234//234
f 281//281 234//234 282//282
f 282//282 234//234 227//227
f 273//273 228//228 238//238
f 238//238 228//228 237//237
f 237//237 228//228 233//233
f 278//278 232//232 231//231
f 237//237 233//233 236//236
f 236//236 233//233 232//232
f 226//226 230//230 283//283
f 283//283 230//230 229//229
f 283//283 229//229 273//273
f 273//273 229//229 228//228
f 282//282 227//227 226//226
f 281//281 278//278 231//231
f 236//236 232//232 278//278
f 236//236 278//278 235//235
f 219//219 251//251 278//278
f 251//251 252//252 278//278
f 278//278 252//252 235//235
f 242//242 212//212 241//241
f 241//241 212//212 216//216
f 245//245 206//206 244//244
f 212//212 242//242 243//243
f 212//212 243//243 206//206
f 206//206 243//243 244//244
f 284//284 267//267 285//285
f 286//286 274//274 284//284
f 284//284 274//274 267//267
f 287//287 274//274 286//286
f 287//287 275//275 274//274
f 288//288 276//276 289//289
f 289//289 276//276 290//290
f 290//290 276//276 275//275
f 290//290 275//275 287//287
f 288//288 273//273 276//276
f 288//288 291//291 273//273
f 273//273 291//291 283//283
f 283//283 291//291 292//292
f 283//283 292//292 293//293
f 283//283 293//293 226//226
f 294//294 282//282 295//295
f 295//295 282//282 293//293
f 293//293 282//282 226//226
f 294//294 281//281 282//282
f 281//281 294//294 296//296
f 281//281 296//296 278//278
f 278//278 296//296 297//297
f 278//278 297//297 277//277
f 277//277 297//297 298//298
f 277//277 298//298 223//223
f 299//299 279//279 300//300
f 300//300 279//279 280//280
f 300//300 280//280 301//301
f 301//301 280//280 221//221
f 301//301 221//221 298//298
f 298//298 221//221 223//223
f 302//302 271//271 303//303
f 303//303 271//271 272//272
f 303//303 272//272 304//304
f 304//304 272//272 299//299
f 299//299 272//272 279//279
f 305//305 200//200 302//302
f 302//302 200//200 271//271
f 306//306 268//268 305//305
f 305//305 268//268 200//200
f 307//307 268//268 306//306
f 285//285 267//267 269//269
f 285//285 269//269 308//308
f 308//308 269//269 270//270
f 308//308 270//270 309//309
f 309//309 270//270 307//307
f 307//307 270//270 268//268
f 310//310 309//309 311//311
f 311//311 309//309 307//307
f 311//311 307//307 312//312
f 312//312 307//307 306//306
f 312//312 306//306 305//305
f 312//312 305//305 313//313
f 313//313 305//305 302//302
f 313//313 302//302 303//303
f 313//313 303//303 314//314
f 314//314 303//303 304//304
f 314//314 304//304 315//315
f 315//315 304//304 299//299
f 315//315 299//299 316//316
f 316//316 299//299 300//300
f 316//316 300//300 317//317
f 317//317 300//300 301//301
f 317//317 301//301 318//318
f 318//318 301//301 298//298
f 318//318 298//298 319//319
f 319//319 298//298 297//297
f 319//319 297//297 320//320
f 320//320 297//297 296//296
f 320//320 296//296 321//321
f 321//321 296//296 294//294
f 321//321 294//294 322//322
f 322//322 294//294 323//323
f 323//323 294//294 295//295
f 323//323 295//295 324//324
f 324//324 295//295 293//293
f 324//324 293//293 325//325
f 325//325 293//293 292//292
f 325//325 292//292 326//326
f 326//326 292//292 291//291
f 326//326 291//291 327//327
f 327//327 291//291 288//288
f 327//327 288//288 328//328
f 328//328 288//288 289//289
f 328//328 289//289 290//290
f 328//328 290//290 329//329
f 329//329 290//290 330//330
f 330//330 290//290 287//287
f 330//330 287//287 286//286
f 330//330 286//286 331//331
f 331//331 286//286 284//284
f 331//331 284//284 285//285
f 331//331 285//285 332//332
f 332//332 285//285 308//308
f 332//332 308//308 310//310
f 310//310 308//308 309//309
f 260//260 261//261 333//333
f 260//260 333//333 259//259
f 259//259 333//333 258//258
f 257//257 258//258 334//334
f 257//257 334//334 256//256
f 256//256 334//334 335//335
f 256//256 335//335 255//255
f 255//255 335//335 336//336
f 255//255 336//336 254//254
f 254//254 336//336 253//253
f 253//253 336//336 337//337
f 253//253 337//337 266//266
f 266//266 337//337 338//338
f 266//266 338//338 265//265
f 265//265 338//338 339//339
f 265//265 339//339 264//264
f 264//264 339//339 263//263
f 263//263 339//339 340//340
f 263//263 340//340 262//262
f 262//262 340//340 341//341
f 262//262 341//341 261//261
f 327//327 342//342 326//326
f 326//326 342//342 343//343
f 326//326 343//343 325//325
f 325//325 343//343 344//344
f 325//325 344//344 324//324
f 324//324 344//344 345//345
f 324//324 345//345 323//323
f 323//323 345//345 322//322
f 322//322 345//345 346//346
f 313//313 347//347 312//312
f 312//312 347//347 348//348
f 312//312 348//348 311//311
f 311//311 348//348 349//349
f 311//311 349//349 310//310
f 310//310 349//349 332//332
f 332//332 349//349 350//350
f 332//332 350//350 331//331
f 331//331 350//350 351//351
f 322//322 346//346 321//321
f 321//321 346//346 352//352
f 321//321 352//352 320//320
f 320//320 352//352 319//319
f 319//319 352//352 353//353
f 319//319 353//353 318//318
f 318//318 353//353 354//354
f 318//318 354//354 317//317
f 331//331 351//351 355//355
f 331//331 355//355 330//330
f 330//330 355//355 329//329
f 329//329 355//355 356//356
f 329//329 356//356 328//328
f 328//328 356//356 357//357
f 328//328 357//357 327//327
f 327//327 357//357 342//342
f 354//354 358//358 317//317
f 317//317 358//358 316//316
f 316//316 358//358 315//315
f 315//315 358//358 359//359
f 315//315 359//359 314//314
f 314//314 359//359 360//360
f 314//314 360//360 313//313
f 313//313 360//360 347//347
f 361//361 362//362 363//363
f 363//363 362//362 364//364
f 365//365 366//366 362//362
f 362//362 366//366 367//367
f 367//367 368//368 362//362
f 368//368 364//364 362//362
f 369//369 370//370 371//371
f 370//370 369//369 372//372
f 370//370 372//372 373//373
f 373//373 374//374 370//370
f 370//370 374//374 375//375
f 370//370 375//375 376//376
f 377//377 349//349 378//378
f 378//378 349//349 348//348
f 378//378 348//348 379//379
f 379//379 348//348 347//347
f 379//379 347//347 380//380
f 380//380 347//347 381//381
f 381//381 347//347 360//360
f 381//381 360//360 382//382
f 382//382 360//360 359//359
f 382//382 359//359 383//383
f 383//383 359//359 384//384
f 384//384 359//359 358//358
f 384//384 358//358 385//385
f 385//385 358//358 386//386
f 386//386 358//358 354//354
f 386//386 354//354 387//387
f 387//387 354//354 388//388
f 388//388 354//354 353//353
f 388//388 353//353 352//352
f 388//388 352//352 389//389
f 389//389 352//352 390//390
f 390//390 352//352 346//346
f 390//390 346//346 391//391
f 391//391 346//346 345//345
f 391//391 345//345 392//392
f 392//392 345//345 393//393
f 393//393 345//345 344//344
f 393//393 344//344 394//394
f 394//394 344//344 343//343
f 394//394 343//343 395//395
f 395//395 343//343 342//342
f 395//395 342//342 396//396
f 396//396 342//342 357//357
f 396//396 357//357 397//397
f 397//397 357//357 356//356
f 397//397 356//356 398//398
f 398//398 356//356 355//355
f 398//398 355//355 399//399
f 399//399 355//355 400//400
f 400//400 355//355 351//351
f 400//400 351//351 401//401
f 401//401 351//351 402//402
f 402//402 351//351 350//350
f 402//402 350//350 403//403
f 403//403 350//350 349//349
f 403//403 349//349 377//377
f 404//404 405//405 406//406
f 406//406 405//405 407//407
f 407//407 405//405 408//408
f 407//407 408//408 409//409
f 409//409 408//408 410//410
f 410//410 408//408 411//411
f 411//411 408//408 412//412
f 411//411 412//412 413//413
f 413//413 412//412 414//414
f 414//414 412//412 415//415
f 414//414 415//415 416//416
f 416//416 415//415 417//417
f 417//417 415//415 418//418
f 417//417 418//418 419//419
f 419//419 418//418 420//420
f 420//420 418//418 421//421
f 420//420 421//421 422//422
f 422//422 421//421 423//423
f 423//423 421//421 424//424
f 423//423 424//424 425//425
f 425//425 424//424 426//426
f 426//426 424//424 427//427
f 426//426 427//427 428//428
f 428//428 427//427 429//429
f 429//429 427//427 430//430
f 430//430 427//427 431//431
f 430//430 431//431 432//432
f 432//432 431//431 433//433
f 433//433 431//431 434//434
f 433//433 434//434 435//435
f 435//435 434//434 436//436
f 436//436 434//434 437//437
f 436//436 437//437 438//438
f 438//438 437//437 439//439
f 439//439 437//437 440//440
f 440//440 437//437 441//441
f 440//440 441//441 442//442
f 442//442 441//441 443//443
f 443//443 441//441 444//444
f 443//443 444//444 445//445
f 445//445 444//444 446//446
f 446//446 444//444 447//447
f 446//446 447//447 448//448
f 448//448 447//447 449//449
f 449//449 447//447 450//450
f 450//450 447//447 451//451
f 450//450 451//451 452//452
f 452//452 451//451 453//453
f 453//453 451//451 454//454
f 453//453 454//454 455//455
f 455//455 454//454 456//456
f 456//456 454//454 457//457
f 457//457 454//454 458//458
f 457//457 458//458 459//459
f 459//459 458//458 460//460
f 460//460 458//458 461//461
f 461//461 458//458 462//462
f 461//461 462//462 463//463
f 463//463 462//462 464//464
f 464//464 462//462 465//465
f 464//464 465//465 466//466
f 466//466 465//465 467//467
f 467//467 465//465 468//468
f 467//467 468//468 469//469
f 469//469 468//468 470//470
f 470//470 468//468 471//471
f 470//470 471//471 472//472
f 472//472 471//471 473//473
f 473//473 471//471 474//474
f 474//474 471//471 475//475
f 474//474 475//475 476//476
f 476//476 475//475 477//477
f 477//477 475//475 478//478
f 478//478 475//475 479//479
f 478//478 479//479 480//480
f 480//480 479//479 481//481
f 481//481 479//479 482//482
f 481//481 482//482 483//483
f 483//483 482//482 484//484
f 484//484 482//482 404//404
f 484//484 404//404 485//485
f 485//485 404//404 406//406
f 338//338 371//371 339//339
f 371//371 338//338 337//337
f 339//339 371//371 370//370
f 340//340 365//365 341//341
f 336//336 371//371 337//337
f 365//365 362//362 334//334
f 365//365 261//261 341//341
f 261//261 365//365 333//333
f 370//370 340//340 339//339
f 362//362 335//335 334//334
f 365//365 334//334 258//258
f 365//365 258//258 333//333
f 365//365 340//340 370//370
f 336//336 335//335 371//371
f 371//371 335//335 362//362
f 421//421 418//418 362//362
f 371//371 401//401 402//402
f 371//371 402//402 369//369
f 402//402 403//403 372//372
f 402//402 372//372 369//369
f 403//403 373//373 372//372
f 377//377 374//374 403//403
f 403//403 374//374 373//373
f 375//375 374//374 378//378
f 378//378 374//374 377//377
f 370//370 376//376 379//379
f 379//379 376//376 378//378
f 378//378 376//376 375//375
f 431//431 365//365 434//434
f 434//434 365//365 370//370
f 431//431 366//366 365//365
f 427//427 367//367 431//431
f 431//431 367//367 366//366
f 427//427 368//368 367//367
f 364//364 368//368 427//427
f 424//424 364//364 427//427
f 424//424 363//363 364//364
f 421//421 363//363 424//424
f 421//421 362//362 361//361
f 421//421 361//361 363//363
f 370//370 379//379 380//380
f 370//370 380//380 434//434
f 434//434 380//380 381//381
f 434//434 381//381 437//437
f 437//437 381//381 382//382
f 437//437 382//382 441//441
f 441//441 382//382 383//383
f 441//441 383//383 444//444
f 444//444 383//383 384//384
f 444//444 384//384 447//447
f 447//447 384//384 385//385
f 447//447 385//385 451//451
f 451//451 385//385 386//386
f 451//451 386//386 454//454
f 454//454 386//386 387//387
f 454//454 387//387 388//388
f 454//454 388//388 458//458
f 458//458 388//388 389//389
f 458//458 389//389 462//462
f 462//462 389//389 465//465
f 465//465 389//389 390//390
f 465//465 390//390 468//468
f 468//468 390//390 391//391
f 468//468 391//391 471//471
f 471//471 391//391 392//392
f 471//471 392//392 393//393
f 471//471 393//393 475//475
f 475//475 393//393 394//394
f 475//475 394//394 479//479
f 479//479 394//394 482//482
f 482//482 394//394 395//395
f 482//482 395//395 404//404
f 404//404 395//395 396//396
f 404//404 396//396 405//405
f 405//405 396//396 397//397
f 405//405 397//397 408//408
f 408//408 397//397 398//398
f 408//408 398//398 412//412
f 412//412 398//398 399//399
f 412//412 399//399 415//415
f 415//415 399//399 400//400
f 415//415 400//400 418//418
f 418//418 400//400 401//401
f 418//418 401//401 371//371
f 418//418 371//371 362//362

